<?xml version="1.0" standalone="no"?>
<!DOCTYPE svg PUBLIC "-//W3C//DTD SVG 20010904//EN"
 "http://www.w3.org/TR/2001/REC-SVG-20010904/DTD/svg10.dtd">
<svg version="1.0" xmlns="http://www.w3.org/2000/svg"
 width="394.000000pt" height="394.000000pt" viewBox="0 0 394.000000 394.000000"
 preserveAspectRatio="xMidYMid meet">
<metadata>
Created by potrace 1.14, written by Peter Selinger 2001-2017
</metadata>
<g transform="translate(0.000000,394.000000) scale(0.100000,-0.100000)"
fill="#000000" stroke="none">
<path d="M1885 3934 c-184 -48 -332 -170 -473 -388 -70 -110 -191 -371 -206
-446 -3 -14 -14 -59 -26 -100 -23 -78 -28 -98 -36 -140 -3 -14 -10 -40 -15
-58 -6 -18 -9 -36 -6 -39 3 -2 -1 -19 -8 -36 -11 -27 -11 -34 1 -49 12 -12 12
-18 3 -24 -7 -4 -10 -3 -5 4 3 6 2 13 -3 16 -15 10 -23 -74 -9 -92 9 -11 10
-14 1 -9 -14 9 -29 -34 -20 -58 4 -8 2 -17 -4 -21 -6 -4 -5 -12 3 -22 10 -12
10 -14 1 -8 -9 5 -13 -2 -13 -23 0 -22 -7 -35 -25 -47 -14 -9 -23 -20 -20 -24
3 -4 -2 -11 -11 -14 -9 -3 -14 -13 -10 -21 3 -8 1 -17 -4 -20 -6 -4 -10 0 -10
9 0 9 -15 1 -40 -23 -39 -36 -53 -67 -27 -58 6 2 11 12 11 21 -1 9 3 15 10 13
6 -2 11 -8 11 -13 0 -5 4 -15 9 -22 5 -9 3 -13 -5 -11 -8 1 -23 1 -34 0 -18
-2 -18 -3 4 -12 13 -5 22 -12 19 -14 -3 -3 -17 -1 -31 4 -19 8 -25 15 -21 28
5 15 4 15 -4 3 -6 -8 -8 -18 -6 -22 3 -4 1 -8 -5 -8 -5 0 -11 5 -13 12 -3 8
-7 6 -10 -4 -5 -12 -1 -15 17 -13 19 2 24 -2 22 -17 -2 -10 -9 -24 -16 -31
-11 -10 -12 -8 -6 11 4 14 2 22 -5 22 -6 0 -9 -4 -6 -9 3 -5 -1 -14 -9 -21 -8
-7 -15 -18 -15 -25 0 -7 -7 -15 -15 -19 -17 -6 -20 -26 -4 -26 5 0 7 5 4 10
-3 6 -2 10 4 10 18 0 21 -18 5 -31 -14 -11 -19 -10 -39 13 -21 24 -22 25 -34
6 -6 -10 -17 -16 -23 -12 -7 4 -8 3 -4 -4 8 -13 36 -5 36 12 1 6 16 -6 35 -27
22 -26 32 -32 28 -19 -3 13 3 25 17 35 17 12 18 16 6 20 -24 9 -8 45 20 45 14
0 23 -3 20 -6 -3 -2 -1 -13 5 -23 12 -23 3 -25 -18 -4 -8 9 -18 13 -21 10 -7
-7 30 -35 41 -32 5 1 8 6 7 11 -1 5 4 13 12 17 10 7 9 9 -5 9 -10 0 -15 5 -12
10 4 7 12 7 25 0 11 -6 21 -6 25 -1 7 12 -4 18 -32 15 -17 -1 -22 3 -19 19 1
12 8 23 14 25 8 2 10 -3 5 -14 -5 -13 -3 -16 9 -12 8 4 21 2 29 -2 15 -10 42
7 34 20 -3 5 4 11 15 15 11 3 20 9 21 13 0 4 2 15 4 24 2 11 -2 15 -11 11 -9
-3 -14 1 -14 13 0 9 3 14 6 11 4 -3 16 -1 28 5 18 9 19 9 10 -3 -5 -8 -9 -20
-8 -26 1 -7 2 -25 3 -39 1 -17 5 -23 14 -18 9 6 8 3 -1 -9 -9 -11 -14 -57 -16
-151 -1 -74 0 -135 3 -134 3 0 8 0 11 -2 3 -1 16 -3 29 -6 20 -4 22 -2 11 11
-9 10 -9 15 -1 15 6 0 11 -4 11 -10 0 -5 5 -10 10 -10 7 0 7 6 0 20 -7 12 -16
17 -27 13 -12 -5 -10 0 5 15 12 12 22 27 22 34 0 6 9 1 20 -12 11 -12 17 -26
15 -31 -3 -4 0 -11 6 -14 7 -5 10 2 7 21 -1 16 -10 32 -18 36 -12 5 -12 7 3 7
9 1 17 6 17 12 0 5 -5 7 -11 3 -7 -4 -7 1 1 16 10 18 9 24 -1 31 -8 5 -9 9 -3
9 6 0 11 17 12 38 1 27 -1 33 -8 22 -5 -8 -10 -10 -10 -4 0 5 5 15 12 22 8 8
8 15 -2 27 -7 8 -9 15 -4 15 5 0 2 5 -6 11 -12 8 -11 9 6 5 19 -6 21 -2 21 41
1 31 -5 55 -15 68 -14 17 -15 18 -1 7 20 -15 33 -4 16 16 -9 13 -9 14 1 8 8
-5 12 0 12 13 0 12 5 21 10 21 6 0 10 5 10 11 0 5 -4 8 -9 5 -5 -4 -8 2 -6 11
1 10 8 17 14 16 6 -2 11 2 11 7 0 6 -4 10 -8 10 -5 0 -9 7 -9 14 0 11 5 12 18
5 23 -12 26 -12 26 6 0 8 -7 14 -16 13 -21 -4 -23 59 -5 166 8 43 11 83 8 87
-3 5 -1 9 4 9 5 0 12 14 14 30 3 17 0 30 -6 30 -7 0 -7 3 0 8 7 4 24 52 38
107 25 91 59 191 88 255 6 14 11 29 10 33 -4 15 107 232 157 307 123 188 297
310 441 310 56 0 144 -26 202 -61 66 -40 181 -154 236 -235 46 -69 152 -275
146 -285 -2 -4 -21 -10 -41 -13 -40 -8 -283 -87 -337 -110 -17 -7 -57 -24 -88
-38 -32 -14 -55 -29 -50 -33 4 -5 2 -5 -4 -2 -7 4 -40 -6 -75 -22 -58 -26 -65
-27 -76 -12 -10 14 -11 13 -6 -6 3 -13 1 -23 -5 -23 -13 0 -116 -62 -120 -72
-2 -5 -9 -8 -16 -8 -7 0 -21 -7 -32 -16 -10 -8 -13 -12 -5 -8 9 5 12 3 7 -5
-4 -6 -12 -8 -18 -5 -5 4 -22 -2 -36 -13 -15 -10 -44 -27 -64 -38 -20 -10 -35
-23 -32 -27 3 -4 -4 -8 -16 -8 -11 0 -23 -7 -26 -15 -4 -8 -10 -13 -14 -10 -4
2 -15 -4 -25 -15 -10 -11 -24 -20 -32 -20 -15 0 -17 -16 -3 -25 6 -3 10 -1 10
6 0 7 3 10 6 6 15 -14 -8 -26 -27 -14 -17 10 -22 9 -33 -5 -7 -10 -18 -18 -25
-18 -21 0 -11 -28 18 -53 29 -24 29 -25 11 -45 -10 -11 -16 -23 -12 -28 4 -4
1 -4 -5 0 -17 9 -16 11 3 31 15 14 14 18 -15 46 -23 21 -35 27 -44 19 -6 -5
-23 -20 -37 -31 l-25 -21 25 14 c22 14 26 13 41 -6 10 -12 21 -18 25 -13 4 4
-1 14 -12 21 -10 8 -16 18 -11 22 4 4 7 2 7 -5 0 -7 4 -10 9 -7 5 3 11 -1 15
-9 7 -18 -3 -47 -14 -40 -13 8 -30 -20 -25 -44 3 -19 2 -21 -10 -11 -9 7 -15
8 -15 2 0 -19 24 -31 37 -17 6 7 9 16 5 21 -4 4 1 4 11 1 9 -4 17 -2 17 3 0 6
7 10 15 10 8 0 15 5 15 10 0 6 11 15 25 20 14 5 28 17 31 25 4 8 13 15 21 15
12 0 75 42 121 80 6 6 12 7 12 3 0 -4 5 -1 10 7 5 8 13 15 17 15 12 0 87 47
95 59 4 6 8 7 8 2 0 -5 9 -1 20 9 12 11 26 20 33 21 18 3 98 50 93 55 -2 2 8
5 22 6 15 0 28 6 30 12 2 5 10 7 18 4 8 -3 14 0 14 6 0 6 3 10 8 9 7 -2 53 19
107 50 107 60 502 189 520 170 17 -16 79 -233 105 -368 8 -36 18 -68 24 -72 7
-5 7 -8 -2 -8 -7 0 -10 -5 -7 -11 7 -11 9 -20 20 -104 6 -55 -6 -113 -18 -82
-4 10 -2 17 3 17 24 0 7 20 -17 21 -16 0 -22 3 -15 6 8 3 -12 23 -50 51 -35
26 -65 49 -68 53 -10 11 -160 109 -166 108 -4 0 -11 6 -16 15 -5 9 -15 13 -25
9 -10 -4 -14 -2 -10 4 4 6 -8 20 -27 31 -26 15 -37 17 -46 9 -10 -9 -12 -8 -7
5 8 24 -3 29 -27 13 -30 -21 -42 -18 -15 3 15 13 19 21 11 26 -7 4 -12 4 -12
1 0 -4 -12 3 -26 14 -14 11 -32 17 -41 14 -12 -5 -14 -3 -8 8 8 12 6 12 -8 0
-15 -12 -17 -11 -17 8 0 12 -4 20 -9 16 -5 -3 -17 2 -25 11 -9 8 -16 12 -16 8
0 -4 12 -17 26 -30 14 -13 22 -29 19 -34 -11 -17 -24 -11 -20 10 2 11 -1 20
-7 20 -5 0 -8 -6 -5 -14 3 -8 0 -19 -7 -26 -11 -8 -14 -4 -15 22 -1 54 -4 67
-12 62 -5 -2 -6 -11 -3 -18 3 -8 1 -17 -5 -21 -6 -3 -11 -1 -11 6 0 10 -3 10
-11 2 -6 -6 -19 -9 -28 -6 -9 3 -6 -2 7 -11 12 -10 22 -22 22 -28 0 -6 -10 -2
-22 10 -20 18 -25 19 -42 6 -11 -8 -15 -14 -10 -14 6 0 15 5 22 12 15 15 16
-3 2 -20 -6 -6 -7 -10 -4 -7 4 3 14 -1 23 -8 14 -11 14 -10 2 6 -7 9 -9 17 -3
17 13 0 33 -25 26 -33 -3 -3 2 -4 13 -3 24 4 38 -5 23 -14 -8 -5 -7 -9 5 -13
9 -4 13 -3 10 3 -3 5 4 8 15 7 22 -1 26 -12 8 -21 -7 -3 -4 -4 7 -3 12 1 19
-3 17 -11 -1 -8 2 -11 9 -7 6 4 17 -2 25 -14 9 -12 19 -19 24 -16 5 3 16 -2
24 -11 16 -15 22 -7 16 21 -1 6 4 5 11 -2 18 -18 41 -5 29 17 -13 25 15 21 35
-6 13 -16 14 -16 9 -1 -7 19 11 24 22 5 5 -7 3 -8 -6 -3 -9 5 -11 4 -6 -4 4
-6 12 -9 17 -5 5 3 16 0 24 -6 8 -7 15 -9 15 -5 0 4 6 2 13 -4 8 -6 18 -7 23
-3 4 4 2 -2 -6 -12 -14 -18 -13 -18 10 -12 20 6 22 5 10 -4 -12 -9 -10 -10 10
-5 14 3 21 3 15 -2 -5 -4 -17 -17 -25 -27 -13 -17 -13 -19 0 -14 8 3 23 1 33
-4 12 -6 19 -5 23 6 5 13 11 12 39 -7 34 -22 64 -67 45 -67 -6 0 -10 7 -10 15
0 8 -4 15 -10 15 -12 0 -13 -10 -1 -29 10 -16 49 -22 57 -9 3 4 10 8 17 8 6 0
2 -6 -8 -14 -11 -8 -26 -11 -35 -8 -12 5 -12 2 3 -21 28 -42 20 -45 -10 -4
-26 37 -28 38 -43 20 -8 -11 -21 -18 -29 -15 -8 3 -5 8 11 16 17 9 23 20 23
45 0 20 -6 36 -14 39 -9 3 -11 0 -7 -7 4 -7 2 -18 -4 -26 -9 -11 -9 -15 -1
-15 6 0 11 -5 11 -11 0 -8 -6 -7 -17 2 -14 12 -16 12 -11 -1 4 -11 0 -16 -13
-16 -24 0 -24 4 1 24 23 19 37 66 17 59 -7 -3 -11 -10 -9 -17 5 -22 -19 -42
-34 -29 -8 6 -22 9 -33 6 -12 -3 -18 1 -17 12 0 9 -5 15 -11 14 -7 -2 -13 2
-13 8 0 5 -4 8 -10 4 -14 -9 0 -34 16 -28 9 3 14 0 12 -8 -2 -8 3 -13 10 -12
6 2 12 -2 12 -7 0 -6 5 -10 11 -10 5 0 7 5 3 12 -4 7 -3 8 5 4 6 -4 9 -11 6
-16 -3 -5 6 -17 20 -27 73 -52 145 -108 189 -146 27 -23 51 -41 52 -40 8 6 64
-61 64 -74 0 -8 5 -11 10 -8 6 3 10 1 10 -4 0 -6 -5 -11 -12 -11 -6 0 -3 -7 8
-15 13 -11 14 -13 3 -9 -13 4 -15 0 -12 -20 4 -18 10 -23 24 -21 10 2 19 -1
19 -6 0 -5 -8 -9 -17 -7 -24 4 -29 -29 -6 -35 16 -4 16 -5 1 -6 -14 -1 -17
-10 -15 -46 1 -25 3 -45 5 -45 1 0 7 12 12 26 6 14 14 23 19 20 5 -4 12 -1 14
4 3 6 4 5 2 -2 -1 -7 -8 -12 -14 -10 -6 1 -11 -4 -11 -12 0 -8 -6 -21 -12 -28
-7 -7 -14 -20 -16 -28 -3 -11 1 -11 16 3 28 25 37 21 10 -5 -21 -22 -34 -48
-23 -48 11 0 43 39 37 46 -4 3 3 1 16 -5 26 -14 25 -35 -2 -37 -12 -2 -13 -1
-1 3 16 5 21 23 6 23 -13 0 -64 -50 -57 -57 3 -3 12 0 21 7 9 7 18 10 22 6 3
-3 2 -6 -4 -6 -6 0 -18 -12 -28 -26 -9 -15 -12 -23 -6 -20 6 4 11 2 11 -3 0
-6 -6 -11 -12 -11 -9 0 -8 -4 2 -10 12 -8 13 -12 2 -19 -11 -7 -11 -9 2 -14 9
-4 17 -1 17 6 1 7 3 23 4 37 1 14 3 31 4 38 0 7 6 10 11 7 6 -3 10 2 11 12 0
13 2 14 6 4 3 -8 0 -19 -8 -25 -8 -6 -16 -20 -17 -30 -3 -17 -1 -18 12 -7 8 7
18 21 21 32 5 15 9 16 25 7 14 -9 16 -16 8 -25 -7 -9 -7 -13 1 -13 7 0 10 -13
7 -35 -3 -19 -1 -35 4 -35 4 0 8 24 8 54 0 47 -4 56 -24 67 -13 7 -24 16 -24
21 0 5 5 6 10 3 6 -3 10 -1 10 4 0 6 5 11 11 11 8 0 9 -4 0 -13 -10 -13 -6
-27 8 -27 4 0 7 34 7 75 1 41 -3 75 -8 75 -5 0 -6 -4 -3 -10 3 -5 -5 -15 -19
-21 -26 -12 -27 -33 -2 -23 22 9 30 -16 11 -34 -16 -16 -17 -16 -6 6 7 12 8
22 2 22 -5 0 -12 -6 -14 -12 -4 -10 -6 -10 -6 0 -1 7 -5 11 -10 8 -5 -4 -8 1
-7 10 1 9 13 22 27 30 13 7 20 14 14 14 -5 0 -1 8 10 16 19 14 19 16 2 25 -9
6 -15 15 -11 21 4 6 -2 8 -17 4 -20 -6 -21 -5 -6 4 19 12 41 4 32 -11 -4 -5
-1 -9 4 -9 15 0 14 23 -1 40 -10 11 -9 11 7 0 11 -8 29 -23 39 -32 11 -10 24
-18 28 -18 5 0 6 -4 3 -10 -3 -5 -1 -11 4 -11 6 -1 17 -2 24 -3 6 -1 11 -9 9
-19 -2 -10 3 -17 13 -17 9 0 14 -4 11 -9 -4 -5 -3 -11 1 -13 5 -2 26 -22 47
-45 39 -41 39 -42 22 -68 -18 -28 -42 -58 -64 -81 -7 -8 -11 -14 -8 -14 3 0
-15 -20 -39 -44 -25 -24 -42 -46 -38 -50 3 -3 0 -6 -8 -6 -8 0 -20 -9 -27 -20
-7 -12 -18 -20 -25 -19 -25 3 -38 -1 -32 -11 10 -16 -14 -40 -32 -33 -11 4
-14 3 -9 -6 9 -13 -20 -51 -38 -51 -7 0 -7 3 -1 8 16 11 17 34 3 45 -9 6 -7 7
7 2 11 -3 16 -3 12 1 -4 4 -2 13 4 21 6 7 7 13 2 13 -5 0 -10 6 -11 13 -9 91
-8 102 10 115 10 7 16 18 12 23 -3 6 -12 3 -20 -8 -13 -16 -14 -16 -8 0 3 9 2
17 -3 17 -13 0 -12 -140 1 -141 6 0 2 -4 -9 -9 -17 -7 -17 -9 -2 -9 9 -1 17
-6 17 -12 0 -6 -6 -9 -13 -6 -10 4 -13 -6 -12 -37 2 -51 -13 -82 -59 -120 -19
-16 -33 -33 -30 -38 3 -5 2 -7 -3 -6 -15 4 -54 -23 -47 -34 4 -6 3 -8 -3 -5
-13 8 -46 -27 -36 -37 4 -4 1 -5 -7 -2 -8 3 -26 -3 -40 -14 l-25 -19 24 4 c13
2 21 1 17 -2 -4 -4 -17 -8 -29 -10 -12 -2 -24 -8 -25 -13 -2 -6 -8 -8 -13 -4
-5 3 -9 -2 -9 -11 0 -9 -4 -13 -10 -10 -5 3 -10 1 -10 -5 0 -6 -4 -8 -10 -5
-5 3 -10 2 -10 -4 0 -5 10 -11 23 -13 12 -2 21 -9 19 -16 -1 -6 7 -12 18 -12
11 0 19 5 18 11 -2 6 4 14 12 16 12 4 12 3 2 -5 -8 -5 -13 -13 -13 -18 1 -5
-8 -9 -19 -9 -11 0 -20 5 -20 10 -1 18 -54 26 -66 10 -6 -8 -15 -11 -19 -7 -5
4 -5 1 -1 -5 4 -7 2 -13 -4 -13 -6 0 -8 -5 -4 -12 5 -9 3 -9 -9 1 -14 11 -18
11 -23 -3 -3 -9 -12 -16 -20 -16 -8 0 -14 -5 -14 -11 0 -5 -4 -7 -10 -4 -6 3
-7 -1 -4 -10 4 -11 2 -14 -9 -9 -28 10 -30 -18 -3 -43 15 -13 24 -29 20 -35
-4 -6 1 -8 14 -4 11 4 23 2 27 -4 4 -7 11 -6 20 2 32 29 45 38 50 38 10 -2
164 114 164 123 1 5 -3 6 -7 3 -5 -3 -9 1 -9 9 0 8 4 15 9 15 4 0 8 -4 8 -10
0 -20 23 -9 61 29 22 21 39 36 39 34 0 -3 7 0 16 8 13 10 17 10 24 0 4 -8 13
-10 19 -7 16 10 14 -9 -3 -23 -11 -9 -15 -9 -19 1 -4 9 -6 9 -6 1 -1 -6 4 -15
9 -18 6 -3 10 -11 10 -17 0 -7 -4 -7 -13 1 -10 8 -14 7 -14 -4 0 -8 4 -12 9
-9 4 3 22 -8 38 -25 32 -31 42 -28 12 5 -33 35 -33 52 -3 74 40 28 53 25 17
-4 -27 -23 -29 -47 -3 -45 9 0 9 2 0 6 -7 2 -13 10 -13 15 0 6 3 9 6 5 9 -9
43 35 37 49 -2 6 3 11 12 11 20 0 19 -9 -6 -40 -15 -20 -18 -31 -10 -44 5 -11
6 -25 1 -34 -6 -11 -5 -16 4 -16 10 0 13 10 10 29 -1 16 0 26 5 24 4 -3 8 1 8
9 0 11 -4 12 -14 4 -9 -8 -13 -8 -13 -1 0 6 8 17 18 24 10 7 17 22 17 33 0 11
3 25 7 31 5 6 7 22 4 35 -2 13 2 30 8 38 8 11 8 13 -1 7 -33 -19 -5 17 80 105
143 148 197 210 191 220 -3 5 -1 8 5 7 6 -2 21 10 34 26 l24 30 44 -57 c60
-76 160 -238 214 -346 201 -401 154 -713 -125 -821 -145 -57 -386 -59 -610 -5
-14 3 -32 8 -40 10 -8 2 -21 4 -28 4 -7 1 -10 6 -6 13 4 7 3 8 -4 4 -11 -6
-202 48 -271 76 -14 6 -28 12 -31 13 -3 1 -26 11 -53 23 -112 52 -139 62 -150
55 -7 -3 -9 -3 -5 2 9 9 -20 34 -39 35 -7 0 -10 -7 -7 -17 5 -15 4 -15 -4 -3
-6 8 -8 18 -6 22 3 4 -6 13 -20 20 -14 6 -26 15 -26 20 0 5 -4 7 -9 3 -5 -3
-12 -1 -15 4 -11 17 11 22 24 6 10 -12 16 -13 26 -4 8 6 14 8 14 4 0 -5 9 0
21 11 12 10 23 18 25 16 11 -7 64 30 58 40 -5 7 -2 9 9 5 8 -3 21 1 27 9 7 8
18 14 25 14 6 0 20 9 30 20 10 11 23 17 29 13 6 -3 5 0 -2 8 -11 12 -15 11
-28 -5 -9 -13 -14 -15 -14 -6 0 9 -5 7 -15 -6 -8 -10 -15 -15 -15 -10 0 5 -7
3 -15 -4 -11 -9 -15 -9 -15 -1 0 7 -5 9 -11 5 -8 -4 -7 -9 2 -16 11 -7 10 -8
-4 -4 -11 3 -16 2 -12 -4 3 -6 1 -10 -4 -10 -6 0 -11 5 -11 11 0 5 -5 7 -11 3
-8 -4 -7 -9 2 -16 11 -8 11 -9 -1 -5 -8 2 -14 10 -12 16 1 6 -2 11 -8 11 -14
0 -13 -13 3 -30 10 -12 9 -12 -6 0 -10 7 -16 19 -13 27 4 9 1 11 -6 7 -7 -5
-8 -3 -3 6 5 8 4 11 -3 6 -6 -3 -9 1 -8 11 3 20 31 24 59 10 16 -7 17 -6 8 12
-15 27 -14 34 3 19 8 -7 14 -15 14 -18 -1 -21 4 -30 13 -24 8 5 8 9 -1 14 -9
6 -6 10 9 15 11 3 21 11 21 18 0 8 -3 8 -12 -1 -16 -16 -25 -15 -25 3 0 8 4
12 9 9 12 -7 49 21 40 31 -4 5 -1 5 6 1 7 -4 9 -12 6 -18 -5 -8 -1 -9 10 -5
10 4 20 7 22 7 2 0 4 5 4 11 0 5 -4 8 -8 5 -4 -2 -14 -1 -21 3 -9 6 -10 11 -2
15 6 4 11 3 11 -1 0 -5 9 -9 21 -10 20 -2 20 -1 4 18 -22 23 -20 23 -41 2 -10
-10 -21 -18 -25 -18 -4 0 -19 -10 -33 -22 -14 -13 -26 -20 -26 -15 0 4 -7 -1
-14 -11 -8 -10 -17 -18 -20 -18 -19 3 -27 -1 -46 -21 -11 -12 -20 -18 -20 -14
0 4 -13 -2 -29 -13 -15 -11 -32 -17 -36 -13 -5 4 -5 1 -1 -5 4 -8 1 -13 -8
-13 -9 0 -16 -5 -16 -11 0 -5 -6 -7 -12 -3 -9 5 -9 3 1 -9 7 -9 18 -14 24 -10
6 4 7 1 2 -7 -6 -9 -4 -11 5 -5 9 6 11 4 5 -5 -5 -8 -4 -11 3 -6 17 10 2 38
-17 32 -11 -4 -10 -2 3 9 21 16 37 20 35 8 -3 -21 2 -33 15 -33 8 0 17 -4 21
-9 3 -6 -3 -8 -13 -6 -10 2 -25 -1 -32 -5 -9 -6 -24 -1 -42 11 -15 11 -28 17
-28 13 0 -5 -5 -3 -12 4 -8 8 -15 9 -25 0 -11 -9 -12 -7 -7 7 5 13 4 16 -4 11
-7 -4 -12 -2 -12 5 0 8 -4 8 -15 -1 -13 -11 -14 -10 -8 5 5 15 3 17 -12 11
-11 -4 -16 -4 -12 0 10 10 -13 34 -33 34 -10 0 -20 6 -23 12 -3 7 -22 22 -43
33 -38 20 -62 36 -90 63 -8 7 -14 9 -14 3 0 -5 8 -15 18 -21 11 -8 12 -10 2
-7 -8 2 -21 16 -28 30 -11 24 -16 26 -34 16 l-21 -11 21 -12 c11 -6 21 -15 21
-21 0 -5 10 -13 23 -17 22 -7 22 -7 -2 -5 -15 2 -24 8 -22 16 2 9 -3 11 -15 7
-9 -4 -14 -4 -10 0 4 4 0 12 -9 19 -15 10 -15 13 0 27 14 15 13 18 -12 34 -15
10 -28 17 -30 16 -1 -2 -10 4 -19 13 -8 9 -20 14 -27 12 -13 -5 -9 -39 7 -50
7 -5 4 -6 -8 -2 -11 4 -26 7 -32 6 -7 0 -20 -2 -28 -3 -9 -1 -14 -7 -11 -15 8
-21 -2 -15 -15 8 -6 12 -7 19 -1 15 5 -3 12 1 16 9 7 20 -9 19 -30 -2 -17 -17
-18 -17 -11 1 6 14 4 17 -9 12 -8 -3 -18 -6 -21 -6 -4 0 20 -19 53 -42 32 -23
62 -46 66 -52 4 -6 10 -7 14 -3 9 9 -16 38 -26 32 -5 -3 -12 0 -16 6 -4 7 -3
9 4 5 6 -3 13 -2 17 4 3 5 1 10 -6 10 -7 0 -10 3 -6 6 3 3 14 1 24 -5 14 -8
14 -10 3 -11 -13 0 -13 -2 -1 -9 8 -5 15 -20 16 -32 2 -23 75 -87 101 -88 7
-1 14 -8 18 -16 3 -9 12 -12 23 -8 10 3 15 3 11 -2 -4 -4 25 -30 65 -57 39
-28 74 -54 75 -59 2 -5 9 -6 15 -2 6 4 8 0 5 -9 -5 -11 0 -14 18 -10 14 2 24
0 24 -7 0 -7 -4 -10 -8 -7 -8 5 -40 -11 -32 -16 3 -2 18 -14 33 -28 16 -14 28
-20 27 -15 -5 21 1 29 10 15 6 -9 10 -10 10 -3 0 7 -9 17 -21 23 -11 7 -19 14
-16 17 6 5 49 -18 59 -32 4 -5 8 -6 8 -2 0 5 16 -1 36 -12 19 -12 41 -18 47
-15 7 4 8 3 4 -2 -10 -11 141 -86 156 -77 6 3 7 1 3 -5 -6 -11 6 -16 27 -13 4
0 7 -3 7 -7 0 -12 68 -34 80 -27 6 4 9 1 8 -5 -2 -7 46 -30 110 -54 61 -23
110 -45 106 -48 -3 -3 1 -6 8 -5 34 1 49 -4 42 -15 -4 -7 -3 -8 5 -4 6 4 53
-2 104 -14 51 -12 101 -24 112 -26 11 -2 31 -6 45 -9 129 -26 361 -26 473 -1
204 46 358 179 414 358 24 75 23 289 -1 378 -61 225 -192 476 -355 679 -28 35
-51 65 -51 68 0 2 22 36 48 76 158 235 251 480 258 677 4 126 -7 181 -53 278
-80 170 -260 279 -493 299 -97 9 -132 8 -262 -1 -83 -6 -108 -5 -108 4 0 26
-101 221 -160 308 -108 161 -238 276 -380 332 -54 22 -216 36 -265 24z m1155
-798 c201 -12 357 -112 412 -263 24 -66 32 -193 16 -270 -28 -143 -114 -342
-212 -491 l-47 -73 -20 26 c-12 14 -25 22 -31 19 -7 -4 -8 -2 -4 5 4 6 0 14
-8 17 -9 3 -13 11 -9 17 4 6 0 8 -11 4 -10 -4 -15 -3 -11 3 8 13 -73 92 -86
84 -5 -3 -8 -1 -7 5 4 14 -72 92 -83 85 -5 -3 -8 0 -7 8 2 7 -4 12 -12 10 -8
-2 -12 0 -8 4 4 4 4 12 -2 19 -7 9 -22 118 -23 173 0 6 -3 12 -6 12 -3 0 -7
21 -8 45 -1 25 -7 53 -15 62 -7 9 -8 14 -2 10 8 -4 8 8 1 46 -6 29 -13 54 -16
57 -3 3 -7 19 -7 35 -3 53 -4 56 -16 49 -10 -5 -10 -4 -2 5 12 12 8 51 -5 51
-3 0 -6 13 -7 28 0 15 -13 67 -28 116 -15 48 -25 90 -22 93 6 6 171 20 196 16
8 -1 49 -4 90 -7z m-954 -276 c0 -11 -4 -20 -9 -20 -5 0 -4 -7 3 -15 10 -12
16 -13 26 -4 11 9 14 8 14 -2 0 -8 9 -4 23 9 18 17 26 19 35 10 9 -9 12 -9 12
1 0 8 10 6 29 -8 15 -11 32 -17 36 -13 5 4 5 1 1 -6 -4 -7 -12 -10 -17 -7 -8
6 -12 -6 -6 -22 4 -13 31 -9 42 5 9 11 11 9 11 -7 0 -11 -5 -19 -11 -18 -5 1
-9 -6 -7 -16 2 -13 -2 -17 -15 -15 -11 2 -17 -2 -15 -11 3 -12 0 -12 -11 -2
-8 6 -19 10 -24 9 -5 -2 -26 15 -46 36 -20 21 -37 36 -37 32 0 -4 -10 -1 -22
6 -13 7 -27 13 -33 13 -5 1 -9 7 -7 14 1 7 -3 19 -9 27 -8 10 -8 14 0 14 6 0
11 -6 11 -12 0 -7 5 -5 11 5 13 22 15 21 15 -3z m-322 2 c3 -5 -1 -9 -9 -9 -8
0 -12 4 -9 9 3 4 7 8 9 8 2 0 6 -4 9 -8z m14 -38 c12 0 25 -4 28 -7 3 -3 -8
-5 -25 -3 -17 1 -37 8 -44 16 -10 10 -9 11 3 4 8 -5 25 -9 38 -10z m-111 -9
c0 -8 -4 -12 -9 -9 -5 3 -6 10 -3 15 9 13 12 11 12 -6z m-26 -22 c13 -17 13
-17 -6 -3 -11 8 -22 16 -24 17 -2 2 0 3 6 3 6 0 17 -8 24 -17z m-54 -25 c-3
-8 -6 -5 -6 6 -1 11 2 17 5 13 3 -3 4 -12 1 -19z m140 -1 c0 -8 -6 -14 -14
-14 -9 0 -10 4 -2 14 6 7 12 13 14 13 1 0 2 -6 2 -13z m597 -8 c-3 -5 -10 -7
-15 -3 -5 3 -7 10 -3 15 3 5 10 7 15 3 5 -3 7 -10 3 -15z m-638 -15 c1 -9 0
-13 -4 -10 -3 4 -7 14 -8 22 -1 9 0 13 4 10 3 -4 7 -14 8 -22z m-136 -5 c0 -5
-4 -9 -8 -9 -5 0 -9 7 -9 15 0 8 4 12 9 9 4 -3 8 -9 8 -15z m815 3 c-3 -3 -11
0 -18 7 -9 10 -8 11 6 5 10 -3 15 -9 12 -12z m-718 -6 c-1 -6 5 -9 13 -8 8 2
11 0 7 -4 -12 -12 -38 -14 -30 -1 4 6 0 8 -10 4 -10 -4 -14 -2 -11 7 6 15 34
17 31 2z m-117 -16 c8 -5 11 -10 5 -10 -5 0 -17 5 -25 10 -8 5 -10 10 -5 10 6
0 17 -5 25 -10z m31 -17 c-12 -20 -14 -14 -5 12 4 9 9 14 11 11 3 -2 0 -13 -6
-23z m-60 2 c5 4 6 -1 2 -10 -5 -13 -7 -14 -14 -3 -5 7 -8 18 -8 23 0 6 3 4 6
-3 2 -6 9 -10 14 -7z m99 0 c5 3 11 1 14 -4 4 -5 -2 -8 -11 -7 -9 2 -18 8 -19
15 -1 6 0 7 3 1 2 -5 9 -8 13 -5z m-55 -24 c3 -5 0 -13 -6 -17 -8 -5 -9 -3 -4
6 6 10 4 12 -8 7 -10 -3 -17 -2 -17 3 0 13 27 13 35 1z m43 -16 c-3 -3 -9 2
-12 12 -6 14 -5 15 5 6 7 -7 10 -15 7 -18z m-143 -2 c14 -11 15 -14 3 -10 -26
9 -31 -6 -6 -20 13 -7 18 -12 12 -13 -7 0 -22 9 -35 20 -13 11 -19 20 -14 19
22 -3 29 2 15 11 -8 5 -10 10 -5 10 6 -1 19 -8 30 -17z m115 -13 c-12 -23 -16
-24 -26 -8 -4 6 -3 8 3 5 6 -4 13 0 17 8 3 8 8 15 11 15 3 0 1 -9 -5 -20z
m932 6 c7 4 8 2 4 -4 -4 -6 -13 -9 -21 -6 -8 4 -12 11 -8 17 5 8 8 7 11 -1 2
-7 9 -9 14 -6z m-1032 -48 c12 3 12 2 3 -8 -10 -11 -19 -8 -48 14 -19 15 -35
29 -35 32 0 3 15 -6 33 -19 17 -14 39 -22 47 -19z m30 32 c0 -5 -4 -10 -10
-10 -5 0 -10 5 -10 10 0 6 5 10 10 10 6 0 10 -4 10 -10z m-330 -16 c0 -8 -19
-13 -24 -6 -3 5 1 9 9 9 8 0 15 -2 15 -3z m367 0 c-3 -3 -12 -4 -19 -1 -8 3
-5 6 6 6 11 1 17 -2 13 -5z m1307 -22 c3 -5 -1 -9 -9 -9 -8 0 -12 4 -9 9 3 4
7 8 9 8 2 0 6 -4 9 -8z m-1648 -44 c3 -4 -1 -5 -10 -4 -8 1 -18 5 -22 8 -3 4
1 5 10 4 8 -1 18 -5 22 -8z m1639 1 c2 -3 -8 -5 -25 -5 -16 0 -27 3 -25 6 5 8
42 6 50 -1z m-1455 -29 c0 -5 -4 -10 -10 -10 -5 0 -10 5 -10 10 0 6 5 10 10
10 6 0 10 -4 10 -10z m1274 -5 c-10 -8 -23 -14 -29 -14 -5 0 -1 6 9 14 11 8
24 15 30 15 5 0 1 -7 -10 -15z m-61 -45 c-2 -3 -9 3 -14 13 -6 9 -14 15 -20
12 -5 -3 -6 1 -3 9 5 13 9 12 24 -7 10 -12 16 -24 13 -27z m101 34 c3 -8 2
-12 -4 -9 -6 3 -10 10 -10 16 0 14 7 11 14 -7z m-18 -15 c8 -14 -18 -31 -30
-19 -9 9 0 30 14 30 5 0 12 -5 16 -11z m175 -6 c13 -16 12 -17 -3 -4 -17 13
-22 21 -14 21 2 0 10 -8 17 -17z m-222 -33 c-6 -5 -18 -6 -26 -3 -19 8 -16 11
13 11 17 0 22 -3 13 -8z m25 -12 c-5 -8 -1 -9 12 -4 14 5 16 4 8 -4 -6 -6 -19
-8 -28 -4 -14 5 -15 9 -4 15 18 12 20 11 12 -3z m86 -8 c0 -5 -2 -10 -4 -10
-3 0 -8 5 -11 10 -3 6 -1 10 4 10 6 0 11 -4 11 -10z m138 -25 c-3 -3 -9 2 -12
12 -6 14 -5 15 5 6 7 -7 10 -15 7 -18z m-153 5 c3 -6 -1 -7 -9 -4 -18 7 -21
14 -7 14 6 0 13 -4 16 -10z m39 2 c3 -5 -1 -9 -9 -9 -8 0 -12 4 -9 9 3 4 7 8
9 8 2 0 6 -4 9 -8z m-61 -19 c-7 -2 -19 -2 -25 0 -7 3 -2 5 12 5 14 0 19 -2
13 -5z m-1635 -43 c-1 -16 -6 -30 -11 -30 -5 0 -6 8 -2 18 5 13 3 14 -6 5 -15
-15 -4 -47 13 -37 7 4 5 -2 -5 -13 -19 -22 -32 -24 -55 -9 -10 6 -10 1 2 -22
8 -16 12 -33 8 -37 -4 -5 2 -5 13 -2 17 6 17 4 -4 -13 -27 -23 -32 -24 -54 -7
-16 11 -15 12 8 13 16 1 23 -2 18 -10 -3 -6 -2 -7 2 -3 14 13 14 36 0 31 -17
-7 -29 12 -14 22 8 5 9 3 4 -7 -5 -8 -5 -11 -1 -7 10 9 8 23 -4 24 -21 3 -21
4 -5 20 9 9 19 14 22 10 10 -9 32 14 27 28 -3 8 2 16 11 20 9 3 13 11 9 17 -4
8 -3 9 4 5 7 -4 12 -2 12 3 0 6 2 11 5 11 3 0 4 -13 3 -30z m1652 26 c0 -3 -4
-8 -10 -11 -5 -3 -10 -1 -10 4 0 6 5 11 10 11 6 0 10 -2 10 -4z m30 -20 c0 -2
-7 -6 -15 -10 -8 -3 -15 -1 -15 4 0 6 7 10 15 10 8 0 15 -2 15 -4z m-1605 -86
c-4 -6 -1 -18 7 -27 9 -13 6 -12 -14 2 -22 17 -24 21 -10 27 24 9 24 9 17 -2z
m35 -54 c0 -3 -4 -8 -10 -11 -5 -3 -10 -1 -10 4 0 6 5 11 10 11 6 0 10 -2 10
-4z m-50 -10 c0 -2 -7 -7 -16 -10 -8 -3 -12 -2 -9 4 6 10 25 14 25 6z m1733
-10 c4 -10 1 -13 -8 -9 -8 3 -12 9 -9 14 7 12 11 11 17 -5z m-1874 -15 c9 -6
10 -11 2 -15 -6 -4 -11 -2 -11 4 0 6 -4 8 -10 5 -5 -3 -10 -1 -10 4 0 13 10
14 29 2z m152 -8 c13 -16 12 -17 -3 -4 -10 7 -18 15 -18 17 0 8 8 3 21 -13z
m-37 -1 c3 -5 -1 -9 -9 -9 -8 0 -12 4 -9 9 3 4 7 8 9 8 2 0 6 -4 9 -8z m1781
-2 c-3 -5 -12 -10 -18 -10 -7 0 -6 4 3 10 19 12 23 12 15 0z m-1745 -31 c0 -6
-4 -7 -10 -4 -5 3 -10 11 -10 16 0 6 5 7 10 4 6 -3 10 -11 10 -16z m1834 9
c-3 -4 -11 -5 -19 -1 -21 7 -19 12 4 10 11 0 18 -5 15 -9z m-1897 -20 c-3 -8
-6 -5 -6 6 -1 11 2 17 5 13 3 -3 4 -12 1 -19z m37 7 c3 -8 1 -15 -4 -15 -6 0
-10 7 -10 15 0 8 2 15 4 15 2 0 6 -7 10 -15z m1746 5 c0 -5 -2 -10 -4 -10 -3
0 -8 5 -11 10 -3 6 -1 10 4 10 6 0 11 -4 11 -10z m195 1 c3 -5 2 -12 -3 -15
-5 -3 -9 1 -9 9 0 17 3 19 12 6z m-195 -31 c0 -5 -4 -10 -10 -10 -5 0 -10 5
-10 10 0 6 5 10 10 10 6 0 10 -4 10 -10z m240 6 c0 -3 -4 -8 -10 -11 -5 -3
-10 -1 -10 4 0 6 5 11 10 11 6 0 10 -2 10 -4z m-1997 -13 c-7 -2 -19 -2 -25 0
-7 3 -2 5 12 5 14 0 19 -2 13 -5z m52 -23 c-3 -4 0 -11 5 -13 6 -3 5 -4 -2 -2
-7 1 -12 8 -10 15 2 7 -3 10 -11 7 -7 -3 -14 1 -14 8 0 10 5 11 19 4 10 -6 16
-14 13 -19z m1675 16 c0 -3 -4 -8 -10 -11 -5 -3 -10 -1 -10 4 0 6 5 11 10 11
6 0 10 -2 10 -4z m62 -18 c-7 -7 -12 -8 -12 -2 0 14 12 26 19 19 2 -3 -1 -11
-7 -17z m-1780 -17 c-2 -9 3 -11 15 -7 9 4 14 4 10 0 -4 -4 0 -12 7 -18 10 -8
11 -17 5 -31 -9 -19 -9 -18 -5 3 5 25 -6 29 -24 7 -7 -8 -17 -15 -23 -15 -6 0
-1 7 11 16 22 15 22 17 5 30 -10 7 -13 14 -8 15 6 0 -1 5 -15 10 l-25 8 25 -2
c15 -2 24 -8 22 -16z m-22 -16 c19 -22 8 -25 -12 -3 -10 10 -14 18 -9 18 5 0
14 -7 21 -15z m1789 12 c-2 -1 -13 -9 -24 -17 -19 -14 -19 -14 -6 3 7 9 18 17
24 17 6 0 8 -1 6 -3z m-1801 -42 c-3 -3 -9 2 -12 12 -6 14 -5 15 5 6 7 -7 10
-15 7 -18z m22 -31 c0 -2 -7 -4 -15 -4 -8 0 -15 4 -15 10 0 5 7 7 15 4 8 -4
15 -8 15 -10z m14 -11 c-10 -16 -24 -34 -32 -42 -11 -11 -11 -16 0 -23 10 -8
10 -9 -1 -6 -8 2 -15 14 -16 26 -1 11 2 19 6 16 4 -2 18 9 30 26 28 38 38 40
13 3z m1836 -437 c0 -2 -8 -10 -17 -17 -16 -13 -17 -12 -4 4 13 16 21 21 21
13z m-78 -114 c-7 -2 -12 -8 -12 -13 0 -6 4 -8 8 -5 13 8 12 -35 -1 -48 -7 -6
-21 -13 -31 -14 -17 -3 -18 -2 -7 12 7 9 17 14 21 11 17 -10 19 13 3 26 -14
12 -16 12 -8 0 6 -11 4 -13 -9 -8 -10 4 -15 3 -11 -3 3 -6 3 -16 -2 -22 -4 -7
-8 -19 -8 -25 0 -7 -4 -12 -10 -10 -5 1 -9 10 -8 20 2 10 -2 15 -7 12 -6 -3
-10 -13 -10 -21 0 -12 -3 -12 -20 -2 -11 7 -20 17 -20 22 0 4 6 4 13 -2 9 -8
25 2 62 37 28 26 54 45 60 42 5 -3 4 -6 -3 -9z m-142 -6 c0 -2 -8 -10 -17 -17
-16 -13 -17 -12 -4 4 13 16 21 21 21 13z m26 -28 c4 -7 3 -10 -1 -5 -5 4 -18
-2 -30 -13 -17 -16 -22 -17 -22 -6 0 8 4 13 8 11 3 -3 12 2 19 10 15 18 17 18
26 3z m-83 -15 c-4 -10 -9 -11 -19 -2 -18 15 -18 15 5 15 11 0 17 -5 14 -13z
m17 -38 c0 -1 -6 -7 -13 -13 -10 -8 -13 -6 -13 7 0 11 6 17 13 14 7 -3 13 -6
13 -8z m-80 -34 c0 -4 -7 -16 -16 -27 -15 -18 -15 -18 -5 3 14 28 14 36 -1 27
-7 -4 -8 -3 -4 5 7 11 26 6 26 -8z m47 -1 c10 -13 8 -16 -7 -17 -11 -1 -22 2
-25 8 -3 5 1 6 10 3 11 -5 14 -2 9 12 -7 20 -6 19 13 -6z m-83 -6 c3 -8 2 -12
-4 -9 -6 3 -10 10 -10 16 0 14 7 11 14 -7z m-34 -24 c0 -5 -4 -10 -10 -10 -5
0 -10 5 -10 10 0 6 5 10 10 10 6 0 10 -4 10 -10z m-54 -45 c9 -8 11 -15 6 -15
-5 0 -15 7 -22 15 -7 8 -9 15 -6 15 4 0 14 -7 22 -15z m88 -10 c-10 -8 -23
-15 -28 -15 -6 0 -1 7 10 15 10 8 23 15 28 15 6 0 1 -7 -10 -15z m-114 0 c0
-3 -13 -19 -30 -35 -35 -35 -39 -30 -7 10 20 27 37 38 37 25z m-914 -43 c9 9
34 -10 34 -26 0 -6 -5 -3 -11 7 -6 9 -15 15 -20 11 -12 -7 -39 14 -39 29 0 6
6 2 14 -9 8 -10 18 -16 22 -12z m846 6 c-7 -7 -12 -8 -12 -2 0 14 12 26 19 19
2 -3 -1 -11 -7 -17z m123 13 c3 -5 -1 -16 -9 -24 -8 -8 -13 -16 -12 -18 2 -2
-8 -13 -22 -23 l-27 -20 18 21 c10 12 15 28 11 39 -4 13 -3 15 3 6 8 -10 12
-10 22 2 10 12 8 15 -11 19 -22 4 -22 4 -1 6 12 0 24 -3 28 -8z m-58 -23 c-3
-29 -36 -80 -48 -72 -5 3 -9 0 -9 -7 0 -6 -9 -1 -21 12 -16 18 -19 20 -15 6 3
-10 2 -16 -3 -12 -11 6 -7 72 4 83 4 4 4 -3 1 -15 -5 -14 -3 -23 3 -23 6 0 11
5 11 12 0 6 3 8 6 5 4 -4 1 -13 -6 -22 -24 -29 7 -15 41 19 19 19 35 34 36 35
1 0 1 -9 0 -21z m-894 -30 c2 -7 0 -22 -6 -32 -8 -16 -6 -18 7 -13 10 4 15 3
11 -2 -3 -5 0 -11 7 -13 7 -3 4 -7 -7 -12 -11 -4 -16 -4 -12 0 4 4 -1 13 -10
19 -14 10 -15 16 -5 27 9 11 9 17 0 26 -9 9 -9 12 -1 12 6 0 13 -6 16 -12z
m777 -10 c0 -6 -6 -5 -15 2 -8 7 -15 14 -15 16 0 2 7 1 15 -2 8 -4 15 -11 15
-16z m-807 6 c3 -3 3 -13 0 -21 -5 -12 -7 -12 -14 -1 -15 23 -4 40 14 22z
m707 -38 c0 -2 -8 -10 -17 -17 -16 -13 -17 -12 -4 4 13 16 21 21 21 13z m-687
-36 c9 -11 12 -20 7 -20 -6 0 -13 7 -16 15 -4 8 -10 12 -15 9 -5 -3 -9 0 -9 5
0 17 14 13 33 -9z m62 0 c3 -5 1 -10 -4 -10 -6 0 -11 5 -11 10 0 6 2 10 4 10
3 0 8 -4 11 -10z m81 -16 c1 -9 0 -13 -4 -10 -3 4 -7 14 -8 22 -1 9 0 13 4 10
3 -4 7 -14 8 -22z m-16 -20 c0 -2 -9 0 -20 6 -11 6 -20 13 -20 16 0 2 9 0 20
-6 11 -6 20 -13 20 -16z m55 16 c-3 -5 -12 -10 -18 -10 -7 0 -6 4 3 10 19 12
23 12 15 0z m-135 -4 c0 -3 -4 -8 -10 -11 -5 -3 -10 -1 -10 4 0 6 5 11 10 11
6 0 10 -2 10 -4z m37 -27 c2 -18 1 -20 -6 -9 -5 8 -8 17 -5 21 2 4 -1 10 -6
12 -6 3 -5 4 1 3 7 -1 14 -13 16 -27z m83 1 c0 -5 -2 -10 -4 -10 -3 0 -8 5
-11 10 -3 6 -1 10 4 10 6 0 11 -4 11 -10z m-25 -10 c4 -6 -1 -7 -11 -3 -13 5
-15 3 -9 -7 5 -9 4 -11 -4 -6 -6 4 -9 12 -6 17 8 12 22 12 30 -1z m67 3 c-6
-2 -9 -10 -6 -15 4 -7 2 -8 -5 -4 -13 9 -5 26 12 25 9 0 8 -2 -1 -6z m346 -2
c-2 -5 7 -23 20 -40 19 -26 26 -29 42 -21 10 5 22 10 27 10 4 -1 -5 -8 -22
-17 -16 -9 -31 -14 -31 -12 -1 2 -11 -5 -23 -15 -12 -11 -21 -16 -21 -11 0 4
-6 2 -14 -4 -11 -9 -16 -9 -22 0 -4 7 -3 9 4 5 6 -3 13 -3 15 1 6 10 -18 45
-29 43 -4 0 -9 7 -10 17 -3 17 25 45 38 37 4 -2 9 0 13 6 8 12 16 13 13 1z
m-391 -33 c-3 -8 -6 -5 -6 6 -1 11 2 17 5 13 3 -3 4 -12 1 -19z m119 -4 c1 -9
0 -13 -4 -10 -3 4 -7 14 -8 22 -1 9 0 13 4 10 3 -4 7 -14 8 -22z m414 22 c0
-2 -8 -10 -17 -17 -16 -13 -17 -12 -4 4 13 16 21 21 21 13z m-507 -26 c3 -11
1 -18 -4 -14 -5 3 -9 12 -9 20 0 20 7 17 13 -6z m34 -25 c0 -8 -4 -15 -9 -15
-10 0 -11 14 -1 23 9 10 10 9 10 -8z m38 5 c4 -6 10 -8 14 -6 4 3 8 -1 8 -9 0
-12 -4 -12 -21 2 -12 10 -23 19 -25 20 -2 2 1 3 7 3 6 0 14 -5 17 -10z m4 -54
c-3 -3 -11 5 -18 17 -13 21 -12 21 5 5 10 -10 16 -20 13 -22z m256 -56 c3 -5
1 -10 -4 -10 -6 0 -11 5 -11 10 0 6 2 10 4 10 3 0 8 -4 11 -10z m-205 -42 c0
-6 -7 -5 -15 2 -8 7 -15 17 -15 22 0 6 7 5 15 -2 8 -7 15 -17 15 -22z m170 6
c0 -8 -19 -13 -24 -6 -3 5 1 9 9 9 8 0 15 -2 15 -3z"/>
<path d="M2147 2819 c-16 -19 -16 -20 5 -29 13 -5 18 -9 11 -9 -7 -1 -3 -11
10 -24 15 -16 26 -20 35 -14 8 6 12 5 12 -4 0 -12 2 -12 9 0 5 7 13 11 18 8 5
-3 10 0 10 8 0 8 -4 12 -9 9 -10 -7 -40 15 -34 25 2 3 -2 15 -10 26 -8 10 -14
14 -14 9 0 -6 5 -15 11 -21 9 -9 7 -12 -10 -10 -15 1 -19 6 -16 18 9 26 -9 31
-28 8z m14 -12 c-10 -9 -11 -8 -5 6 3 10 9 15 12 12 3 -3 0 -11 -7 -18z m39
-32 c4 3 13 -1 19 -8 8 -11 7 -14 -7 -14 -20 0 -44 22 -34 31 4 4 8 2 10 -3 2
-6 7 -9 12 -6z"/>
<path d="M2640 2489 c0 -5 5 -7 10 -4 6 3 10 8 10 11 0 2 -4 4 -10 4 -5 0 -10
-5 -10 -11z"/>
<path d="M1011 2306 c-10 -11 -9 -14 1 -12 14 2 23 15 15 22 -2 2 -10 -2 -16
-10z"/>
<path d="M2408 1146 c-30 -23 -36 -38 -16 -33 14 2 53 46 47 52 -2 2 -16 -7
-31 -19z"/>
<path d="M2053 987 c-11 -17 -13 -38 -3 -32 4 3 15 -7 25 -21 15 -24 18 -24
34 -10 10 9 22 13 26 9 5 -5 -4 8 -19 27 -30 36 -51 46 -63 27z m48 -22 c12
-14 14 -24 7 -32 -6 -7 -15 -10 -20 -7 -5 3 -7 9 -4 12 3 3 -3 12 -14 19 -11
8 -18 18 -15 24 9 13 27 7 46 -16z"/>
<path d="M2075 965 c11 -9 19 -21 17 -26 -1 -6 2 -8 8 -4 13 8 4 22 -23 35
-22 11 -22 11 -2 -5z"/>
<path d="M1506 3122 c-2 -4 4 -8 14 -8 10 0 16 4 14 8 -3 4 -9 8 -14 8 -5 0
-11 -4 -14 -8z"/>
<path d="M1430 3116 c0 -2 8 -10 18 -17 15 -13 16 -12 3 4 -13 16 -21 21 -21
13z"/>
<path d="M1665 3080 c-3 -6 1 -7 9 -4 18 7 21 14 7 14 -6 0 -13 -4 -16 -10z"/>
<path d="M1696 3073 c-6 -14 -5 -15 5 -6 7 7 10 15 7 18 -3 3 -9 -2 -12 -12z"/>
<path d="M1593 3063 c9 -8 57 -13 57 -6 0 5 -14 9 -31 9 -16 1 -28 0 -26 -3z"/>
<path d="M1724 3054 c-18 -14 -18 -15 4 -4 12 6 22 13 22 15 0 8 -5 6 -26 -11z"/>
<path d="M1774 3049 c1 -7 12 -13 24 -14 11 -1 19 2 16 7 -4 5 -12 7 -19 4 -8
-3 -16 -1 -19 5 -2 5 -3 4 -2 -2z"/>
<path d="M1540 3045 c0 -2 6 -8 13 -14 10 -8 14 -7 14 2 0 8 -6 14 -14 14 -7
0 -13 -1 -13 -2z"/>
<path d="M1584 3031 c0 -10 5 -18 11 -18 7 0 12 6 12 13 0 7 -5 15 -12 17 -6
3 -11 -3 -11 -12z"/>
<path d="M1672 3035 c4 -4 0 -14 -10 -21 -15 -12 -15 -12 6 -7 24 6 29 18 10
29 -7 4 -10 4 -6 -1z"/>
<path d="M1617 3011 c-4 -17 -3 -21 5 -13 5 5 8 16 6 23 -3 8 -7 3 -11 -10z"/>
<path d="M1767 3011 c9 -11 21 -17 26 -14 5 3 6 -5 3 -18 -6 -20 -5 -21 4 -6
12 18 5 41 -10 32 -4 -3 -10 2 -14 10 -3 8 -10 15 -16 15 -5 0 -2 -9 7 -19z"/>
<path d="M1820 3020 c-9 -6 -10 -10 -3 -10 6 0 15 5 18 10 8 12 4 12 -15 0z"/>
<path d="M1856 3017 c4 -12 2 -17 -7 -15 -7 2 -15 -5 -17 -14 -2 -10 1 -18 7
-18 6 0 7 7 4 17 -4 10 -2 14 5 9 15 -9 26 14 13 27 -9 9 -11 8 -5 -6z"/>
<path d="M1710 3009 c-12 -8 -10 -9 9 -4 17 5 22 4 16 -5 -5 -9 -4 -11 4 -6 6
4 9 12 6 17 -8 12 -16 11 -35 -2z"/>
<path d="M1683 2977 c-3 -6 -1 -7 5 -3 5 3 12 1 14 -6 3 -8 6 -7 10 3 7 17
-19 22 -29 6z"/>
<path d="M1745 2980 c-3 -5 -2 -10 4 -10 5 0 13 5 16 10 3 6 2 10 -4 10 -5 0
-13 -4 -16 -10z"/>
<path d="M1814 2962 c3 -5 0 -13 -6 -15 -9 -4 -10 -6 -1 -6 17 -1 25 16 12 25
-7 4 -9 3 -5 -4z"/>
<path d="M1770 2939 c0 -5 5 -7 10 -4 6 3 10 8 10 11 0 2 -4 4 -10 4 -5 0 -10
-5 -10 -11z"/>
<path d="M2294 2737 c3 -11 0 -20 -9 -23 -17 -7 -20 -25 -4 -21 6 1 14 -5 16
-13 4 -13 3 -13 -6 0 -6 8 -11 11 -11 5 0 -5 -7 -1 -15 9 -16 21 -19 18 -9 -8
3 -9 11 -16 17 -16 5 0 25 -12 44 -26 33 -25 63 -27 63 -4 0 6 -4 8 -10 5 -6
-3 -7 1 -4 12 3 11 0 9 -8 -5 -8 -12 -17 -19 -21 -16 -11 12 -8 26 5 18 7 -4
8 -3 4 5 -4 6 -11 9 -16 6 -17 -10 -21 15 -6 31 15 15 21 8 17 -18 -1 -10 13
-10 22 -1 4 3 2 12 -4 20 -9 9 -8 13 0 13 10 0 12 -7 10 -26 0 -3 8 -12 18
-21 10 -8 12 -12 6 -8 -21 10 -15 -3 15 -30 15 -14 32 -23 39 -21 6 3 14 -2
18 -11 4 -12 9 -13 16 -6 13 13 2 36 -12 28 -5 -4 -9 -1 -9 6 0 10 -3 10 -11
2 -9 -9 -16 -8 -27 4 -18 17 -26 47 -11 37 5 -3 7 -10 4 -15 -4 -5 -2 -9 4 -9
20 0 21 19 1 30 -11 6 -19 16 -17 22 1 7 -2 12 -8 13 -5 0 -15 3 -21 7 -6 4
-21 6 -32 3 -14 -2 -28 4 -38 18 -12 16 -15 17 -10 4z m20 -38 c-3 -5 -10 -7
-15 -3 -5 3 -7 10 -3 15 3 5 10 7 15 3 5 -3 7 -10 3 -15z"/>
<path d="M1304 2579 c-3 -6 -15 -9 -25 -6 -11 3 -17 1 -13 -4 3 -5 -2 -9 -10
-9 -9 0 -16 -5 -16 -11 0 -5 -4 -8 -8 -5 -4 2 -8 -12 -7 -33 0 -27 4 -38 15
-37 8 1 14 -5 12 -12 -2 -10 4 -12 20 -7 19 5 18 3 -5 -10 -15 -9 -31 -13 -36
-11 -5 3 -8 -2 -7 -12 0 -10 -5 -16 -14 -14 -11 3 -12 1 -3 -8 9 -10 17 -9 34
4 13 9 19 16 14 16 -6 0 1 6 15 13 26 13 34 41 13 43 -30 3 -33 4 -33 13 0 6
9 8 21 6 12 -2 19 0 17 7 -2 6 -14 12 -26 13 -12 1 -25 5 -28 8 -4 4 7 5 24 2
20 -2 35 2 44 13 11 13 11 15 -4 9 -10 -3 -20 -2 -22 2 -4 7 25 8 43 2 2 0 -4
-10 -14 -20 -16 -19 -16 -20 3 -18 11 0 18 6 15 12 -2 7 3 18 12 25 12 10 13
16 4 26 -14 17 -25 18 -35 3z m24 -24 c-3 -3 -9 2 -12 12 -6 14 -5 15 5 6 7
-7 10 -15 7 -18z m-58 -15 c0 -5 -4 -10 -10 -10 -5 0 -10 5 -10 10 0 6 5 10
10 10 6 0 10 -4 10 -10z"/>
<path d="M1302 2470 c14 -22 24 -19 15 5 -4 8 -11 15 -17 15 -6 0 -6 -7 2 -20z"/>
<path d="M1790 2400 c-10 -38 -59 -253 -66 -285 -2 -11 -20 -87 -39 -170 -20
-82 -44 -188 -55 -235 -11 -47 -33 -143 -50 -214 -16 -72 -30 -136 -30 -143 0
-10 24 -13 106 -11 126 3 115 -11 160 213 2 11 11 53 21 93 15 66 19 72 42 72
193 4 331 26 316 51 -4 5 1 6 9 3 20 -8 112 53 159 105 131 145 140 366 19
472 -74 65 -144 80 -392 83 l-190 2 -10 -36z m454 -64 c122 -36 167 -128 133
-276 -7 -33 -47 -97 -82 -133 -69 -71 -155 -112 -238 -116 -18 -1 -26 -5 -21
-12 4 -8 1 -8 -12 -2 -19 9 -230 11 -237 3 -2 -3 -21 -82 -42 -177 -21 -95
-41 -177 -45 -183 -4 -7 -16 -10 -27 -8 -19 3 -20 6 -7 58 15 62 83 360 89
387 2 10 15 68 29 128 38 156 53 222 67 287 14 67 3 64 206 61 87 -1 152 -7
187 -17z"/>
<path d="M1915 2315 c-7 -5 -19 -44 -28 -85 -9 -41 -34 -149 -55 -239 l-39
-163 141 5 c169 6 225 21 290 78 50 44 91 112 82 135 -3 9 -1 12 4 9 10 -6 11
-2 15 65 4 80 -68 189 -116 177 -11 -3 -17 -2 -14 3 7 12 -13 16 -80 19 -138
7 -189 6 -200 -4z m258 -86 c61 -16 85 -70 67 -150 -24 -99 -103 -157 -222
-163 -16 0 -28 -4 -28 -9 0 -4 -5 -5 -11 -1 -7 4 -26 7 -43 8 -24 1 -31 5 -30
21 2 41 65 300 74 305 14 9 148 1 193 -11z"/>
<path d="M553 2265 c0 -8 4 -12 9 -9 5 3 6 10 3 15 -9 13 -12 11 -12 -6z"/>
<path d="M832 2170 c-7 -11 -12 -25 -12 -32 0 -7 7 0 15 16 18 33 15 45 -3 16z"/>
<path d="M610 2160 c0 -5 5 -10 11 -10 5 0 7 5 4 10 -3 6 -8 10 -11 10 -2 0
-4 -4 -4 -10z"/>
<path d="M788 2133 c6 -2 9 -10 6 -15 -4 -7 -2 -8 4 -4 18 11 14 26 -5 25 -11
0 -13 -3 -5 -6z"/>
<path d="M856 2067 c-14 -10 -15 -14 -4 -14 7 0 19 6 26 14 7 7 9 13 4 13 -4
0 -16 -6 -26 -13z"/>
<path d="M694 2049 c-10 -12 -19 -24 -19 -28 0 -3 -4 -4 -10 -3 -5 2 -7 0 -3
-4 4 -4 -2 -15 -14 -25 -14 -13 -16 -19 -7 -19 11 0 11 -2 -1 -10 -10 -6 -11
-10 -2 -10 6 0 12 -7 12 -15 0 -8 5 -15 11 -15 6 0 9 -7 6 -14 -4 -11 -1 -13
10 -9 12 5 14 3 8 -7 -5 -8 -4 -11 3 -6 6 3 13 2 17 -4 3 -5 2 -10 -4 -10 -6
0 -16 -10 -22 -22 -11 -23 -11 -23 11 0 18 19 24 21 31 10 5 -7 9 -8 9 -3 0 6
5 3 10 -5 7 -12 9 -10 8 7 -1 12 -7 19 -15 16 -8 -3 -11 2 -8 16 4 20 -9 27
-38 22 -5 -1 -6 3 -2 9 10 15 23 12 47 -12 16 -16 20 -17 15 -5 -6 16 3 22 26
18 5 -1 6 3 3 8 -3 5 4 22 16 37 15 19 17 24 5 15 -10 -8 -21 -10 -25 -6 -4 4
-1 10 6 12 6 3 12 9 12 15 0 6 -7 4 -17 -3 -15 -12 -16 -12 -10 3 4 12 -2 22
-23 35 -21 12 -26 19 -17 25 7 5 8 8 1 8 -6 0 -19 -9 -30 -21z m56 -37 c-8 -3
-8 -8 0 -17 13 -16 22 -57 11 -50 -5 3 -12 -2 -15 -11 -6 -15 -8 -15 -30 0
-22 14 -25 14 -30 -1 -5 -11 -10 -13 -17 -6 -20 20 -16 48 9 76 14 15 22 27
18 27 -4 0 -4 5 -1 10 4 7 17 4 36 -7 16 -10 25 -19 19 -21z m-39 -119 c13
-16 12 -17 -3 -4 -10 7 -18 15 -18 17 0 8 8 3 21 -13z"/>
<path d="M703 2032 c4 -5 -4 -19 -17 -31 -13 -13 -23 -30 -21 -39 2 -9 4 -21
5 -27 0 -5 5 -2 11 7 9 17 11 17 37 0 14 -9 23 -12 19 -6 -4 7 0 15 8 18 13 5
14 9 3 28 -7 13 -11 26 -10 30 1 4 -8 12 -19 19 -12 6 -19 7 -16 1z m13 -21
c-3 -5 1 -12 10 -15 8 -3 12 -10 9 -16 -3 -5 0 -10 7 -10 8 0 5 -5 -5 -11 -14
-8 -22 -8 -30 0 -7 7 -14 7 -23 0 -20 -16 -11 16 11 41 19 21 31 27 21 11z"/>
<path d="M689 1982 c-8 -9 -9 -14 -5 -10 5 4 15 3 23 -4 7 -6 16 -8 20 -4 3 3
0 6 -8 6 -11 0 -12 2 -1 9 11 7 11 9 -1 14 -9 3 -21 -2 -28 -11z"/>
<path d="M771 2067 c2 -1 13 -9 24 -17 19 -14 19 -14 6 3 -7 9 -18 17 -24 17
-6 0 -8 -1 -6 -3z"/>
<path d="M756 2045 c10 -8 24 -14 29 -14 6 0 1 6 -9 14 -11 8 -24 15 -30 15
-5 0 -1 -7 10 -15z"/>
<path d="M802 2021 c2 -7 7 -12 11 -12 12 1 9 15 -3 20 -7 2 -11 -2 -8 -8z"/>
<path d="M1117 1956 c-3 -8 5 -26 17 -40 26 -27 27 -27 -49 -27 -33 -1 -41 -4
-41 -20 0 -10 4 -19 9 -19 5 0 4 -7 -3 -15 -10 -12 -9 -16 3 -21 9 -3 18 -13
21 -21 5 -13 4 -14 -9 -3 -9 7 -18 10 -22 6 -3 -3 -2 -6 4 -6 7 0 10 -20 8
-50 -3 -54 3 -65 25 -48 12 8 11 9 -5 4 -19 -6 -19 -5 -2 8 18 14 24 32 8 21
-5 -3 -13 0 -17 6 -4 7 -3 9 3 6 5 -3 10 0 10 8 0 8 -5 12 -11 9 -6 -3 -4 0 4
8 8 7 22 22 30 32 14 18 13 19 -3 13 -10 -4 -16 -3 -12 2 3 5 0 11 -7 13 -6 2
-12 15 -14 29 -1 13 0 18 2 12 3 -7 10 -13 15 -13 6 0 7 5 4 10 -3 6 -1 10 4
10 6 0 11 -5 11 -11 0 -6 7 -3 16 5 28 28 54 14 28 -15 -15 -17 -15 -18 4 -16
16 1 19 8 19 37 -1 19 -7 41 -14 48 -7 8 -11 17 -8 22 3 4 -1 13 -9 19 -10 9
-15 8 -19 -3z"/>
<path d="M806 1902 c-3 -5 1 -9 9 -9 8 0 12 4 9 9 -3 4 -7 8 -9 8 -2 0 -6 -4
-9 -8z"/>
<path d="M2870 1902 c0 -5 -9 -19 -20 -32 -23 -26 -25 -36 -9 -45 7 -5 2 -16
-12 -31 -12 -13 -18 -24 -12 -24 6 0 14 6 16 13 4 9 6 8 6 -2 1 -11 4 -11 16
-1 10 8 12 16 6 19 -6 4 0 13 12 20 20 13 21 13 9 -1 -10 -13 -10 -17 2 -21 9
-4 13 -15 11 -26 -2 -11 0 -23 6 -26 5 -4 9 7 9 24 0 16 -4 32 -9 36 -5 3 -8
19 -6 35 3 20 -1 33 -13 39 -10 6 -12 11 -4 11 14 0 17 20 2 20 -5 0 -10 -4
-10 -8z m11 -46 c17 10 9 -3 -13 -22 -22 -19 -22 -19 -8 0 14 18 13 19 -4 13
-16 -7 -17 -5 -5 9 8 10 15 12 17 5 2 -6 8 -9 13 -5z"/>
<path d="M560 1865 c0 -2 6 -8 13 -14 10 -8 14 -7 14 2 0 8 -6 14 -14 14 -7 0
-13 -1 -13 -2z"/>
<path d="M630 1859 c0 -5 5 -7 10 -4 6 3 10 8 10 11 0 2 -4 4 -10 4 -5 0 -10
-5 -10 -11z"/>
<path d="M839 1853 c-13 -16 -12 -17 4 -4 9 7 17 15 17 17 0 8 -8 3 -21 -13z"/>
<path d="M1120 1855 c-6 -8 -9 -20 -5 -27 4 -7 1 -6 -7 3 -7 9 -19 14 -27 11
-9 -3 -2 -11 20 -23 19 -10 28 -18 22 -19 -7 0 -19 -13 -28 -30 -14 -27 -14
-30 4 -40 28 -14 36 -13 21 5 -7 8 -16 12 -21 9 -19 -11 -8 8 17 31 20 19 24
28 16 42 -8 13 -6 23 5 35 9 10 11 18 6 18 -6 0 -16 -7 -23 -15z"/>
<path d="M794 1845 c1 -8 6 -18 11 -22 4 -4 5 -3 2 4 -4 6 -2 13 5 15 8 3 6 6
-4 10 -10 4 -15 2 -14 -7z"/>
<path d="M855 1829 c-4 -11 -4 -23 -1 -27 11 -10 36 -11 36 0 0 6 -7 7 -16 4
-13 -5 -15 -1 -10 19 8 30 0 34 -9 4z"/>
<path d="M641 1823 c7 -12 15 -20 18 -17 3 2 -3 12 -13 22 -17 16 -18 16 -5
-5z"/>
<path d="M746 1815 c4 -8 11 -15 16 -15 6 0 5 6 -2 15 -7 8 -14 15 -16 15 -2
0 -1 -7 2 -15z"/>
<path d="M1145 1820 c-3 -5 0 -10 7 -10 7 0 0 -12 -15 -26 -24 -20 -27 -27
-17 -39 16 -19 27 -19 27 0 0 10 -6 14 -16 10 -12 -5 -13 -3 -4 5 8 9 16 9 30
1 10 -6 13 -11 6 -11 -13 0 -12 -17 2 -40 7 -12 6 -13 -6 -4 -18 14 -65 10
-61 -5 1 -6 -9 -17 -23 -23 -26 -12 -31 -23 -16 -33 6 -3 14 3 20 12 8 14 10
15 11 3 0 -13 2 -13 9 -1 5 8 8 23 6 33 -2 10 0 16 6 13 5 -4 7 -10 4 -15 -3
-4 2 -11 11 -14 24 -9 29 -7 16 6 -15 15 -15 28 -1 28 5 0 7 -5 3 -12 -4 -6
-3 -8 4 -4 7 4 9 -2 6 -19 -3 -16 0 -25 8 -25 8 0 5 -5 -5 -11 -9 -6 -14 -15
-11 -21 4 -6 2 -8 -4 -4 -6 3 -14 1 -18 -5 -5 -8 -3 -9 5 -4 9 5 9 2 0 -14 -9
-14 -16 -17 -20 -9 -4 7 -6 15 -4 18 2 3 -10 12 -28 20 -23 10 -32 10 -35 2
-2 -7 -8 -9 -13 -6 -6 4 -6 11 1 19 8 10 8 15 -1 21 -8 5 -9 3 -4 -6 5 -8 3
-11 -6 -8 -8 3 -13 12 -11 21 4 24 -15 30 -40 13 -28 -20 -44 -21 -28 -1 9 10
9 15 1 15 -6 0 -11 -4 -11 -9 0 -5 -9 -11 -20 -14 -11 -3 -20 -11 -20 -19 0
-10 2 -10 9 1 5 8 16 11 26 8 9 -4 29 0 46 8 32 17 39 8 11 -15 -25 -20 -42
-23 -58 -9 -9 7 -14 8 -14 1 0 -6 6 -13 13 -16 9 -5 9 -7 -1 -12 -6 -3 -10
-10 -6 -15 3 -5 14 1 24 13 11 13 19 19 20 14 0 -5 8 -2 19 8 17 16 19 15 35
-9 17 -25 14 -45 -5 -45 -6 0 -7 4 -4 10 3 5 1 18 -5 27 -8 15 -10 12 -6 -15
3 -23 1 -32 -7 -29 -7 2 -11 13 -10 23 1 10 0 13 -3 7 -3 -7 -12 -13 -20 -13
-8 0 -14 -4 -14 -9 0 -5 7 -8 16 -7 9 0 19 -5 22 -13 3 -9 0 -11 -8 -6 -9 6
-11 4 -6 -4 6 -9 12 -8 26 4 10 9 27 18 37 19 10 2 17 10 15 20 -2 9 4 16 13
16 18 0 19 -12 4 -27 -9 -9 -8 -18 4 -36 9 -13 12 -28 7 -33 -4 -5 -4 -20 1
-33 8 -20 11 -22 27 -10 15 13 16 12 3 -4 -9 -12 -17 -14 -26 -7 -21 17 -24
-1 -3 -22 11 -11 17 -26 14 -33 -3 -8 -1 -17 5 -20 5 -4 6 -11 3 -17 -4 -7 -2
-8 5 -4 9 6 9 11 1 21 -9 11 -7 14 8 12 13 -1 18 -6 14 -17 -5 -13 -4 -13 14
0 10 8 16 10 11 5 -4 -5 5 -21 20 -37 15 -15 23 -28 19 -28 -5 0 -3 -7 4 -15
14 -17 1 -20 -18 -5 -9 7 -9 7 -2 -2 15 -17 12 -24 -8 -24 -14 0 -19 8 -19 27
0 19 5 25 14 22 7 -3 13 0 13 7 0 6 -4 9 -9 6 -5 -3 -12 4 -16 17 -4 13 -8 17
-12 9 -2 -6 -8 -10 -12 -8 -4 3 -13 0 -21 -5 -11 -7 -7 -8 13 -5 19 3 27 1 24
-7 -2 -7 -11 -11 -19 -9 -9 1 -19 -6 -22 -15 -6 -14 -4 -15 5 -6 12 12 39 7
39 -9 0 -5 -7 -8 -16 -6 -10 2 -19 -4 -21 -12 -3 -11 -2 -12 4 -2 7 10 13 8
26 -6 23 -25 74 -27 82 -2 3 10 13 17 23 15 9 -2 20 -4 25 -4 4 -1 6 -5 5 -9
-5 -13 66 -68 86 -67 11 0 21 7 23 15 4 13 3 13 -7 0 -10 -13 -11 -13 -6 2 4
14 0 16 -24 13 -29 -3 -46 14 -41 45 2 10 -2 9 -13 -5 -9 -11 -16 -15 -15 -10
1 6 -1 18 -6 28 -6 15 -10 15 -24 5 -14 -12 -15 -11 -2 5 8 10 9 17 3 17 -6 0
-15 -7 -20 -16 -7 -13 -10 -13 -21 -1 -9 12 -9 15 1 13 7 0 14 4 14 9 1 6 -3
9 -9 7 -6 -2 -3 6 7 17 13 15 15 21 6 21 -7 0 -10 3 -7 7 4 3 2 12 -4 19 -7 8
-7 14 1 19 8 5 8 11 -1 21 -9 11 -8 14 4 14 10 0 15 -7 12 -19 -4 -21 53 -70
64 -54 3 5 14 1 23 -8 27 -28 -4 -31 -38 -3 -32 26 -44 29 -44 13 0 -5 4 -8 9
-5 5 3 14 -1 21 -9 9 -11 9 -15 1 -15 -7 0 -9 -5 -5 -11 4 -8 9 -7 15 2 6 11
11 11 20 2 9 -9 18 -9 33 -2 19 9 20 9 4 -4 -23 -18 -22 -22 0 -24 31 -2 22
33 -19 73 -21 21 -39 35 -39 30 0 -4 -12 6 -26 23 -14 17 -30 28 -35 25 -5 -3
-8 -2 -7 3 1 4 -3 18 -10 29 -6 12 -8 24 -5 28 3 3 -2 6 -11 6 -12 0 -16 5
-12 16 4 11 1 14 -12 10 -13 -4 -18 0 -19 14 -1 11 3 22 8 26 5 3 8 2 7 -3 -2
-4 7 -18 18 -29 l22 -22 -2 28 c0 16 -4 26 -8 24 -4 -3 -5 12 -2 32 2 20 -1
43 -7 50 -7 9 -8 14 -1 14 14 0 8 73 -6 78 -7 2 -12 8 -12 13 0 6 5 7 10 4 6
-3 10 3 10 14 0 23 -16 36 -25 21z m25 -199 c0 -6 -4 -12 -8 -15 -5 -3 -9 1
-9 9 0 8 4 15 9 15 4 0 8 -4 8 -9z m5 -41 c3 -6 -1 -7 -9 -4 -18 7 -21 14 -7
14 6 0 13 -4 16 -10z m-69 -46 c1 -9 0 -13 -4 -10 -3 4 -7 14 -8 22 -1 9 0 13
4 10 3 -4 7 -14 8 -22z m64 -34 c0 -5 -2 -10 -4 -10 -3 0 -8 5 -11 10 -3 6 -1
10 4 10 6 0 11 -4 11 -10z m-22 -45 c-3 -3 -9 2 -12 12 -6 14 -5 15 5 6 7 -7
10 -15 7 -18z m42 21 c0 -2 -8 -10 -17 -17 -16 -13 -17 -12 -4 4 13 16 21 21
21 13z m-27 -49 c4 3 7 1 7 -5 0 -6 -8 -10 -18 -9 -10 0 -19 7 -19 14 0 9 4
10 12 3 7 -5 15 -7 18 -3z m107 -22 c6 0 10 -3 10 -7 0 -20 -44 10 -48 32 -1
10 3 8 13 -5 9 -11 20 -20 25 -20z m-65 -134 c-3 -6 -11 -11 -17 -11 -6 0 -6
6 2 15 14 17 26 13 15 -4z"/>
<path d="M560 1800 c-9 -6 -10 -10 -3 -10 6 0 15 5 18 10 8 12 4 12 -15 0z"/>
<path d="M833 1779 c-2 -23 3 -25 10 -4 4 8 3 16 -1 19 -4 3 -9 -4 -9 -15z"/>
<path d="M900 1788 c0 -9 7 -19 16 -22 15 -6 15 -4 3 11 -7 10 -15 20 -16 22
-2 2 -3 -3 -3 -11z"/>
<path d="M798 1783 c7 -3 16 -2 19 1 4 3 -2 6 -13 5 -11 0 -14 -3 -6 -6z"/>
<path d="M2862 1778 c-7 -7 -17 -14 -22 -14 -6 -1 -14 -2 -20 -3 -5 0 -7 -8
-4 -16 8 -19 26 -15 41 10 12 20 13 19 17 -25 1 -8 8 -14 16 -12 12 3 13 1 2
-10 -11 -11 -14 -10 -22 1 -10 17 -40 24 -40 10 0 -6 -5 -7 -11 -3 -6 3 -4 -7
5 -23 10 -20 12 -33 5 -40 -6 -6 -2 -9 13 -8 14 1 23 8 23 19 0 19 24 38 39
29 5 -3 6 -1 2 5 -4 7 -2 12 5 12 7 0 3 9 -9 21 -12 11 -20 24 -17 30 4 5 0 9
-7 9 -9 0 -9 3 2 10 8 5 10 10 5 10 -6 0 -17 -6 -23 -12z m3 -78 c3 -5 1 -10
-4 -10 -6 0 -11 5 -11 10 0 6 2 10 4 10 3 0 8 -4 11 -10z m-7 -45 c-3 -3 -9 2
-12 12 -6 14 -5 15 5 6 7 -7 10 -15 7 -18z"/>
<path d="M549 1757 c6 -8 7 -18 3 -22 -4 -5 -1 -5 6 -1 10 6 10 11 1 22 -6 8
-14 14 -16 14 -3 0 0 -6 6 -13z"/>
<path d="M870 1760 c0 -5 5 -10 10 -10 6 0 10 5 10 10 0 6 -4 10 -10 10 -5 0
-10 -4 -10 -10z"/>
<path d="M511 1747 c-8 -10 -7 -14 2 -14 8 0 14 6 14 14 0 7 -1 13 -2 13 -2 0
-8 -6 -14 -13z"/>
<path d="M930 1746 c0 -2 7 -7 16 -10 8 -3 12 -2 9 4 -6 10 -25 14 -25 6z"/>
<path d="M560 1720 c-9 -6 -10 -10 -3 -10 6 0 15 5 18 10 8 12 4 12 -15 0z"/>
<path d="M810 1718 c0 -4 11 -6 25 -4 20 4 25 1 25 -15 0 -13 -4 -18 -12 -13
-7 5 -8 3 -3 -5 10 -17 28 2 23 25 -3 18 -58 30 -58 12z"/>
<path d="M894 1718 c-7 -11 5 -28 19 -27 9 0 9 2 0 6 -20 7 -15 19 7 20 13 1
18 -2 14 -10 -4 -7 -4 -9 1 -5 4 4 15 2 23 -5 11 -8 14 -8 9 0 -4 6 -4 13 0
16 5 2 3 2 -4 1 -7 -2 -15 1 -18 6 -6 10 -44 9 -51 -2z"/>
<path d="M876 1673 c-6 -14 -5 -15 5 -6 7 7 10 15 7 18 -3 3 -9 -2 -12 -12z"/>
<path d="M1106 1655 c-3 -8 -10 -14 -15 -13 -5 2 -9 -1 -10 -7 -1 -5 3 -10 8
-10 5 0 13 -3 17 -8 4 -4 16 0 26 9 14 13 15 20 7 31 -15 17 -25 17 -33 -2z
m23 -21 c-6 -7 -15 -11 -21 -8 -5 3 -4 12 3 20 6 7 15 11 21 8 5 -3 4 -12 -3
-20z"/>
<path d="M495 1640 c3 -5 8 -10 11 -10 2 0 4 5 4 10 0 6 -5 10 -11 10 -5 0 -7
-4 -4 -10z"/>
<path d="M2816 1613 c-6 -14 -5 -15 5 -6 7 7 10 15 7 18 -3 3 -9 -2 -12 -12z"/>
<path d="M454 1602 c4 -3 14 -7 22 -8 9 -1 13 0 10 4 -4 3 -14 7 -22 8 -9 1
-13 0 -10 -4z"/>
<path d="M470 1566 c0 -2 7 -7 16 -10 8 -3 12 -2 9 4 -6 10 -25 14 -25 6z"/>
<path d="M1003 1547 c-12 -20 -12 -35 2 -40 8 -4 11 3 9 19 -1 16 2 24 9 21 7
-2 11 -18 10 -35 -1 -18 4 -33 13 -36 8 -3 14 -1 14 4 0 6 -5 10 -12 10 -6 0
-4 8 6 19 15 17 15 19 1 25 -9 3 -14 9 -11 14 2 4 -4 8 -14 9 -11 1 -23 -4
-27 -10z"/>
<path d="M1232 1358 c-8 -8 -3 -18 20 -40 17 -16 33 -26 37 -23 3 3 -1 10 -9
15 -10 6 -11 10 -3 10 15 0 36 -37 28 -50 -7 -11 14 -21 48 -25 12 -1 25 -3
30 -4 4 0 7 -10 7 -21 0 -15 6 -19 23 -17 17 1 21 -2 19 -17 -3 -17 -1 -18 12
-7 8 7 20 9 27 5 7 -4 10 -2 7 7 -3 8 -12 14 -21 14 -8 0 -19 4 -24 9 -4 5 -3
6 4 2 6 -3 14 -2 18 4 3 5 1 10 -5 10 -6 0 -8 5 -4 11 4 8 11 4 18 -10 9 -16
14 -19 24 -9 9 9 4 16 -26 30 -20 9 -31 17 -23 18 8 0 0 11 -18 24 -34 25 -52
25 -83 -1 -14 -13 -18 -11 -34 16 -11 19 -22 27 -28 21 -7 -5 -18 -3 -29 5
-13 10 -15 14 -5 18 7 2 10 7 7 10 -3 4 -10 2 -17 -5z m183 -72 c13 -6 16 -10
7 -13 -10 -4 -10 -8 -1 -19 10 -12 9 -18 -4 -30 -9 -8 -15 -11 -12 -7 3 3 -3
15 -12 25 -14 15 -14 18 -2 13 10 -4 16 0 16 10 0 18 -1 19 -36 0 -16 -8 -31
-12 -34 -9 -10 10 16 42 30 37 7 -3 13 1 13 8 0 9 3 10 8 3 4 -6 16 -14 27
-18z"/>
<path d="M1345 1270 c-3 -6 1 -7 9 -4 18 7 21 14 7 14 -6 0 -13 -4 -16 -10z"/>
<path d="M1355 1330 c-3 -5 -1 -10 4 -10 6 0 11 5 11 10 0 6 -2 10 -4 10 -3 0
-8 -4 -11 -10z"/>
<path d="M1132 1236 c13 -13 26 -21 31 -19 9 5 9 -11 0 -20 -3 -4 -15 0 -25
10 -22 20 -24 11 -2 -11 8 -9 12 -21 8 -27 -4 -8 -9 -7 -15 2 -6 10 -9 10 -9
2 0 -6 4 -14 9 -18 12 -7 54 52 47 64 -4 5 0 12 6 15 7 3 4 4 -8 1 -12 -3 -27
1 -34 10 -7 8 -17 15 -22 15 -5 0 2 -11 14 -24z"/>
<path d="M1218 1243 c-23 -28 -30 -43 -19 -43 6 0 11 8 11 18 0 15 2 15 11 2
9 -13 10 -13 6 1 -3 9 0 22 6 28 6 6 9 11 6 11 -3 0 -13 -8 -21 -17z"/>
<path d="M2805 1240 c3 -5 8 -10 11 -10 2 0 4 5 4 10 0 6 -5 10 -11 10 -5 0
-7 -4 -4 -10z"/>
<path d="M2748 1228 c12 -6 22 -15 22 -20 0 -4 6 -8 13 -8 6 1 1 10 -12 20
-13 11 -28 20 -35 19 -6 0 -1 -5 12 -11z"/>
<path d="M2725 1209 c-4 -6 -5 -12 -2 -15 2 -3 7 2 10 11 7 17 1 20 -8 4z"/>
<path d="M2741 1189 c-7 -12 -8 -18 -3 -15 6 3 12 1 14 -6 3 -8 6 -7 10 3 10
27 -6 40 -21 18z"/>
<path d="M1223 1193 c-15 -5 -17 -23 -4 -23 5 0 11 7 15 15 3 8 4 15 3 14 -1
0 -8 -3 -14 -6z"/>
<path d="M2815 1190 c-3 -5 -12 -7 -20 -3 -8 3 -15 3 -15 0 0 -13 28 -13 45
-1 10 8 14 14 8 14 -7 0 -14 -4 -18 -10z"/>
<path d="M1176 1174 c-4 -10 0 -18 13 -21 24 -6 36 -33 16 -33 -8 0 -15 -5
-15 -10 0 -7 7 -7 20 0 16 9 18 15 10 30 -6 11 -18 20 -27 20 -13 0 -13 3 -3
15 7 9 8 15 2 15 -5 0 -13 -7 -16 -16z"/>
<path d="M2766 1154 c-9 -24 -2 -26 12 -4 7 11 8 20 3 20 -5 0 -12 -7 -15 -16z"/>
<path d="M2815 1160 c-3 -5 -2 -10 4 -10 5 0 13 5 16 10 3 6 2 10 -4 10 -5 0
-13 -4 -16 -10z"/>
<path d="M1232 1148 c2 -6 10 -13 16 -14 7 -1 8 0 2 3 -5 2 -8 9 -4 14 3 5 0
9 -6 9 -7 0 -10 -5 -8 -12z"/>
<path d="M2715 1151 c-4 -7 0 -8 11 -4 12 4 15 3 10 -5 -4 -7 -2 -12 4 -12 14
0 8 22 -7 27 -6 2 -14 -1 -18 -6z"/>
<path d="M1160 1140 c8 -5 20 -10 25 -10 6 0 3 5 -5 10 -8 5 -19 10 -25 10 -5
0 -3 -5 5 -10z"/>
<path d="M2793 1143 c4 -6 1 -13 -7 -16 -15 -6 -17 -48 -2 -46 5 0 13 -5 18
-13 8 -10 9 -10 5 2 -2 8 -9 14 -15 13 -6 -2 -10 6 -9 17 1 11 7 20 14 20 16
0 17 16 1 26 -6 4 -8 3 -5 -3z"/>
<path d="M1146 1123 c6 -4 14 -15 17 -23 5 -11 6 -9 4 4 -1 11 -9 21 -17 23
-10 3 -11 2 -4 -4z"/>
<path d="M2716 1117 c3 -10 9 -15 12 -12 3 3 0 11 -7 18 -10 9 -11 8 -5 -6z"/>
<path d="M2751 1104 c0 -11 3 -14 6 -6 3 7 2 16 -1 19 -3 4 -6 -2 -5 -13z"/>
<path d="M1141 1094 c0 -11 3 -14 6 -6 3 7 2 16 -1 19 -3 4 -6 -2 -5 -13z"/>
<path d="M1230 1098 c0 -6 3 -8 7 -5 3 4 12 2 20 -5 11 -8 12 -7 7 6 -7 18
-34 22 -34 4z"/>
<path d="M2277 1075 c-26 -25 -34 -29 -30 -14 3 11 0 19 -6 19 -7 0 -10 -4 -7
-9 8 -12 -4 -42 -13 -36 -4 2 -8 -2 -8 -10 0 -7 8 -13 18 -12 10 1 15 5 13 9
-3 4 0 9 5 9 26 3 30 4 37 11 4 4 16 5 28 3 23 -5 64 20 51 32 -4 5 -10 2 -12
-5 -4 -10 -8 -10 -19 -1 -11 9 -18 8 -33 -5 -14 -13 -21 -14 -27 -5 -4 7 -3
10 4 5 6 -3 14 0 19 7 4 8 15 16 23 19 9 3 10 7 3 11 -6 4 -26 -9 -46 -28z
m57 -13 c3 -5 -1 -9 -9 -9 -8 0 -12 4 -9 9 3 4 7 8 9 8 2 0 6 -4 9 -8z"/>
<path d="M2810 1099 c0 -5 5 -7 10 -4 6 3 10 8 10 11 0 2 -4 4 -10 4 -5 0 -10
-5 -10 -11z"/>
<path d="M1173 1074 c-3 -8 -10 -11 -16 -7 -6 4 -7 1 -2 -7 7 -11 10 -10 19 1
6 8 20 16 31 17 16 3 18 1 8 -9 -7 -7 -13 -18 -13 -23 0 -6 6 -2 12 9 7 11 11
22 10 25 -4 11 -44 6 -49 -6z"/>
<path d="M2710 1081 c8 -5 18 -7 23 -4 5 3 6 -5 3 -18 -6 -21 -6 -22 4 -6 14
21 8 30 -23 34 -17 2 -19 1 -7 -6z"/>
<path d="M1250 1060 c-9 -6 -10 -10 -3 -10 6 0 15 5 18 10 8 12 4 12 -15 0z"/>
<path d="M2767 1059 c7 -7 15 -10 18 -7 3 3 -2 9 -12 12 -14 6 -15 5 -6 -5z"/>
<path d="M1175 1041 c-3 -6 3 -15 14 -21 14 -7 22 -7 26 0 4 6 3 10 -2 9 -20
-3 -34 2 -28 11 3 6 4 10 1 10 -3 0 -7 -4 -11 -9z"/>
<path d="M2710 1044 c0 -5 7 -18 15 -28 8 -11 15 -16 15 -10 0 5 -7 18 -15 28
-8 11 -15 16 -15 10z"/>
<path d="M2750 1040 c0 -5 5 -10 11 -10 5 0 7 5 4 10 -3 6 -8 10 -11 10 -2 0
-4 -4 -4 -10z"/>
<path d="M2790 1040 c-9 -6 -10 -10 -3 -10 6 0 15 5 18 10 8 12 4 12 -15 0z"/>
<path d="M1234 1022 c3 -6 0 -13 -6 -16 -7 -3 -2 -3 11 0 17 5 21 3 16 -6 -5
-9 -4 -11 3 -6 16 10 15 14 -9 27 -13 6 -19 7 -15 1z"/>
<path d="M2120 1016 c6 -8 19 -12 27 -9 10 4 14 2 10 -4 -6 -10 1 -11 33 -3 3
0 -6 7 -20 15 -19 10 -27 10 -32 2 -6 -9 -8 -9 -8 1 0 6 -5 12 -11 12 -8 0 -8
-4 1 -14z"/>
<path d="M2676 1022 c-3 -5 1 -9 9 -9 8 0 15 4 15 9 0 4 -4 8 -9 8 -6 0 -12
-4 -15 -8z"/>
<path d="M2755 1009 c-4 -6 -5 -12 -2 -15 2 -3 7 2 10 11 7 17 1 20 -8 4z"/>
<path d="M1210 979 c0 -5 5 -7 12 -3 8 5 9 1 4 -12 -5 -14 -4 -16 5 -7 6 6 8
16 5 22 -9 14 -26 14 -26 0z"/>
<path d="M2731 974 c0 -11 3 -14 6 -6 3 7 2 16 -1 19 -3 4 -6 -2 -5 -13z"/>
<path d="M2750 965 c0 -5 5 -17 10 -25 5 -8 10 -10 10 -5 0 6 -5 17 -10 25 -5
8 -10 11 -10 5z"/>
<path d="M1186 942 c-3 -5 1 -9 9 -9 8 0 15 4 15 9 0 4 -4 8 -9 8 -6 0 -12 -4
-15 -8z"/>
<path d="M1265 939 c-3 -4 2 -6 10 -5 21 3 28 13 10 13 -9 0 -18 -4 -20 -8z"/>
<path d="M1234 911 c13 -12 18 -13 28 -2 11 10 9 11 -6 5 -12 -5 -17 -4 -13 3
3 5 -1 10 -9 10 -13 0 -13 -2 0 -16z"/>
<path d="M2710 920 c0 -5 5 -10 10 -10 6 0 10 5 10 10 0 6 -4 10 -10 10 -5 0
-10 -4 -10 -10z"/>
<path d="M1210 901 c0 -6 4 -13 10 -16 6 -3 7 1 4 9 -7 18 -14 21 -14 7z"/>
<path d="M2650 902 c0 -5 7 -9 15 -9 8 0 12 4 9 9 -3 4 -9 8 -15 8 -5 0 -9 -4
-9 -8z"/>
<path d="M1306 878 c3 -5 10 -6 15 -3 13 9 11 12 -6 12 -8 0 -12 -4 -9 -9z"/>
<path d="M1255 870 c-3 -6 -18 -8 -32 -6 -14 3 -22 2 -19 -2 14 -13 63 -10 63
4 0 17 -4 18 -12 4z"/>
<path d="M2653 865 c0 -8 3 -13 5 -10 3 3 12 -1 21 -7 10 -8 9 -4 -3 10 -23
26 -23 26 -23 7z"/>
<path d="M1770 850 c0 -5 5 -10 11 -10 5 0 7 5 4 10 -3 6 -8 10 -11 10 -2 0
-4 -4 -4 -10z"/>
<path d="M1255 831 c-3 -5 -2 -12 3 -15 5 -3 9 1 9 9 0 17 -3 19 -12 6z"/>
<path d="M1706 823 c-6 -14 -5 -15 5 -6 7 7 10 15 7 18 -3 3 -9 -2 -12 -12z"/>
<path d="M1742 829 c14 -8 15 -14 6 -35 -9 -19 -9 -27 1 -37 10 -9 11 -8 6 5
-4 9 -1 26 5 38 12 23 1 40 -25 40 -5 -1 -2 -5 7 -11z"/>
<path d="M2657 830 c7 -8 20 -15 29 -16 9 -1 13 1 9 4 -4 4 -10 7 -13 7 -4 0
-14 4 -22 9 -12 7 -13 6 -3 -4z"/>
<path d="M1780 820 c0 -5 5 -10 10 -10 6 0 10 5 10 10 0 6 -4 10 -10 10 -5 0
-10 -4 -10 -10z"/>
<path d="M1675 810 c3 -5 8 -10 11 -10 2 0 4 5 4 10 0 6 -5 10 -11 10 -5 0 -7
-4 -4 -10z"/>
<path d="M1716 805 c-16 -12 -17 -15 -4 -15 9 0 18 7 22 15 7 18 6 18 -18 0z"/>
<path d="M2716 807 c3 -10 9 -15 12 -12 3 3 0 11 -7 18 -10 9 -11 8 -5 -6z"/>
<path d="M1647 796 c-4 -10 -1 -13 8 -9 8 3 12 9 9 14 -7 12 -11 11 -17 -5z"/>
<path d="M2615 800 c-3 -5 -1 -10 4 -10 6 0 11 5 11 10 0 6 -2 10 -4 10 -3 0
-8 -4 -11 -10z"/>
<path d="M1616 792 c-2 -4 -1 -14 4 -22 7 -11 9 -9 7 8 -1 24 -3 26 -11 14z"/>
<path d="M1767 787 c-3 -8 3 -13 17 -14 11 0 15 1 8 4 -6 3 -10 9 -6 14 3 5 1
9 -4 9 -6 0 -12 -6 -15 -13z"/>
<path d="M1810 790 c8 -5 11 -10 5 -10 -5 0 -3 -5 5 -10 25 -16 31 -11 13 10
-10 11 -22 20 -28 20 -5 0 -3 -5 5 -10z"/>
<path d="M1669 779 c-12 -7 -11 -9 3 -9 9 0 18 -6 21 -12 2 -7 7 -11 10 -8 3
3 0 13 -7 22 -8 11 -17 14 -27 7z"/>
<path d="M1580 766 c0 -2 7 -6 15 -10 8 -3 15 -1 15 4 0 6 -7 10 -15 10 -8 0
-15 -2 -15 -4z"/>
<path d="M1274 749 c-3 -6 -2 -15 3 -20 5 -5 9 -1 9 11 0 23 -2 24 -12 9z"/>
<path d="M1761 737 c-13 -21 -12 -21 5 -5 10 10 16 20 13 22 -3 3 -11 -5 -18
-17z"/>
<path d="M1795 750 c3 -5 8 -10 11 -10 2 0 4 5 4 10 0 6 -5 10 -11 10 -5 0 -7
-4 -4 -10z"/>
<path d="M1510 736 c7 -7 13 -7 20 0 6 6 3 10 -10 10 -13 0 -16 -4 -10 -10z"/>
<path d="M1565 740 c-3 -6 1 -7 9 -4 18 7 21 14 7 14 -6 0 -13 -4 -16 -10z"/>
<path d="M1621 737 c-1 -11 -6 -15 -13 -11 -7 5 -8 3 -3 -5 10 -16 29 2 22 21
-4 8 -6 7 -6 -5z"/>
<path d="M1660 740 c0 -5 5 -10 10 -10 6 0 10 5 10 10 0 6 -4 10 -10 10 -5 0
-10 -4 -10 -10z"/>
<path d="M1723 739 c1 -6 -4 -14 -12 -17 -9 -3 -11 0 -6 8 5 9 4 11 -4 6 -16
-10 -5 -25 17 -23 18 1 29 37 11 37 -5 0 -8 -5 -6 -11z"/>
<path d="M1310 726 c0 -2 7 -7 16 -10 8 -3 12 -2 9 4 -6 10 -25 14 -25 6z"/>
<path d="M1426 722 c-2 -4 4 -8 14 -8 10 0 16 4 14 8 -3 4 -9 8 -14 8 -5 0
-11 -4 -14 -8z"/>
<path d="M1570 720 c-9 -6 -10 -10 -3 -10 6 0 15 5 18 10 8 12 4 12 -15 0z"/>
<path d="M1636 715 c-9 -26 -7 -32 5 -12 6 10 9 21 6 23 -2 3 -7 -2 -11 -11z"/>
<path d="M1368 712 c-10 -2 -18 -8 -18 -13 0 -6 7 -6 18 0 13 7 22 7 29 0 6
-6 10 -5 10 4 0 14 -8 16 -39 9z"/>
<path d="M1486 701 c-3 -5 1 -11 9 -14 9 -4 12 -1 8 9 -6 16 -10 17 -17 5z"/>
<path d="M1540 700 c0 -5 5 -10 11 -10 5 0 7 -5 3 -12 -4 -7 -3 -8 5 -4 9 6 9
11 0 22 -14 17 -19 18 -19 4z"/>
<path d="M1594 702 c4 -7 1 -12 -6 -12 -8 0 -6 -5 5 -11 10 -6 21 -8 24 -5 4
3 1 6 -6 6 -7 0 -10 4 -6 9 3 5 0 13 -6 17 -8 4 -9 3 -5 -4z"/>
<path d="M1668 703 c7 -3 16 -2 19 1 4 3 -2 6 -13 5 -11 0 -14 -3 -6 -6z"/>
<path d="M1307 694 c-4 -4 -2 -13 4 -21 8 -9 8 -13 1 -13 -6 0 -16 8 -21 18
-6 10 -11 12 -11 4 0 -7 -4 -10 -10 -7 -5 3 -7 0 -4 -8 3 -8 20 -15 37 -16 18
-1 49 -2 70 -3 20 -1 36 -6 34 -11 -4 -13 -55 -18 -62 -6 -4 5 -14 9 -23 9
-11 0 -6 -6 12 -15 16 -9 35 -14 43 -11 7 3 19 -5 28 -17 8 -12 15 -16 15 -10
0 7 -5 15 -10 18 -6 4 -8 11 -4 16 3 6 12 3 20 -8 12 -15 12 -13 0 13 -8 17
-13 34 -10 37 3 3 -3 10 -14 16 -21 11 -52 5 -52 -10 0 -5 -5 -9 -10 -9 -6 0
-10 7 -8 16 3 18 -13 29 -25 18z m87 -20 c9 -3 13 -11 10 -16 -4 -6 -10 -5
-16 3 -7 11 -11 11 -15 2 -2 -7 -9 -13 -15 -13 -6 0 -6 6 2 15 14 17 13 17 34
9z"/>
<path d="M2570 679 c0 -5 5 -7 10 -4 6 3 10 8 10 11 0 2 -4 4 -10 4 -5 0 -10
-5 -10 -11z"/>
<path d="M1430 663 c0 -6 8 -17 18 -24 16 -13 16 -13 2 6 -8 11 -16 22 -17 24
-2 2 -3 0 -3 -6z"/>
<path d="M1570 659 c0 -5 5 -7 10 -4 6 3 10 8 10 11 0 2 -4 4 -10 4 -5 0 -10
-5 -10 -11z"/>
<path d="M1516 638 c3 -5 10 -6 15 -3 13 9 11 12 -6 12 -8 0 -12 -4 -9 -9z"/>
<path d="M1293 621 c0 -11 5 -17 10 -14 4 2 14 -1 22 -7 11 -9 15 -9 15 -1 0
6 -4 11 -9 11 -5 0 -16 7 -25 15 -13 14 -15 13 -13 -4z"/>
<path d="M1350 591 c0 -6 4 -13 10 -16 6 -3 7 1 4 9 -7 18 -14 21 -14 7z"/>
<path d="M1375 590 c3 -5 8 -10 11 -10 2 0 4 5 4 10 0 6 -5 10 -11 10 -5 0 -7
-4 -4 -10z"/>
<path d="M1294 582 c4 -3 14 -7 22 -8 9 -1 13 0 10 4 -4 3 -14 7 -22 8 -9 1
-13 0 -10 -4z"/>
</g>
</svg>
